<svg id="logo_bitcoin-color" xmlns="http://www.w3.org/2000/svg" width="20" height="20.002" viewBox="0 0 20 20.002">
  <g id="Group_2062" data-name="Group 2062" transform="translate(0 0)">
    <g id="_1421344023328" data-name=" 1421344023328">
      <path id="Path_6875" data-name="Path 6875" d="M318.744,12.421A10,10,0,1,1,311.461.3a10,10,0,0,1,7.283,12.121h0Z" transform="translate(-299.043 0)" fill="#f7931a"/>
      <path id="Path_6876" data-name="Path 6876" d="M495.433,138.872c.2-1.331-.814-2.046-2.2-2.524l.449-1.8-1.1-.273-.438,1.755c-.289-.072-.585-.14-.879-.207l.441-1.767-1.1-.273-.45,1.8c-.239-.054-.473-.108-.7-.165v-.006l-1.513-.378-.292,1.172s.814.187.8.2a.584.584,0,0,1,.511.638l-.512,2.054a.888.888,0,0,1,.114.037l-.116-.029-.718,2.877a.4.4,0,0,1-.5.261c.011.016-.8-.2-.8-.2l-.545,1.256,1.428.356c.266.067.526.136.782.2l-.454,1.824,1.1.273.45-1.8c.3.081.59.156.875.227l-.448,1.8,1.1.273.454-1.82c1.871.354,3.279.211,3.871-1.481a1.925,1.925,0,0,0-1.008-2.661,1.75,1.75,0,0,0,1.4-1.611h0Zm-2.507,3.516c-.339,1.363-2.634.626-3.378.441l.6-2.416c.744.186,3.129.553,2.775,1.975Zm.339-3.536c-.309,1.24-2.219.61-2.839.455l.546-2.191c.619.154,2.615.443,2.292,1.736Z" transform="translate(-481.023 -130.296)" fill="#fff"/>
    </g>
  </g>
</svg>
