<svg id="logo_tron-color" xmlns="http://www.w3.org/2000/svg" width="18.061" height="19.002" viewBox="0 0 18.061 19.002">
  <path id="Path_7012" data-name="Path 7012" d="M19.364,5.724c-.891-.822-2.123-2.078-3.126-2.969l-.059-.042a1.134,1.134,0,0,0-.33-.184h0C13.429,2.078,2.168-.027,1.948,0a.416.416,0,0,0-.172.065L1.719.109a.662.662,0,0,0-.154.249L1.55.4V.641c1.268,3.53,6.273,15.094,7.259,17.808.059.184.172.534.383.552H9.24c.113,0,.594-.635.594-.635S18.432,7.938,19.3,6.828a2.809,2.809,0,0,0,.3-.439A.716.716,0,0,0,19.364,5.724ZM12.039,6.938l3.67-3.043,2.153,1.983Zm-1.425-.2L4.3,1.561,14.519,3.446Zm.57,1.357,6.466-1.042-7.393,8.907ZM3.438,2.078l6.648,5.641-.962,8.248Z" transform="translate(-1.55 0.001)" fill="#ff060a"/>
</svg>
