<svg xmlns="http://www.w3.org/2000/svg" width="21.821" height="21.827" viewBox="0 0 21.821 21.827">
  <g id="icon_edit" transform="translate(0.74 1.061)">
    <path id="Rectangle_3777" data-name="Rectangle 3777" d="M0,0H7.773a0,0,0,0,1,0,0V15.09a3.887,3.887,0,0,1-3.887,3.887h0A3.887,3.887,0,0,1,0,15.09V0A0,0,0,0,1,0,0Z" transform="translate(6.602 18.915) rotate(-135)" fill="none" stroke="#8f96a5" stroke-linecap="round" stroke-linejoin="round" stroke-width="1.5"/>
    <line id="Line_327" data-name="Line 327" x1="5.496" y1="5.496" transform="translate(11.776 2.748)" fill="none" stroke="#8f96a5" stroke-linecap="round" stroke-linejoin="round" stroke-width="1.5"/>
    <line id="Line_328" data-name="Line 328" x1="4.369" y2="4.369" transform="translate(7.229 8.423)" fill="none" stroke="#8f96a5" stroke-linecap="round" stroke-linejoin="round" stroke-width="1.5"/>
    <path id="Path_7063" data-name="Path 7063" d="M763.558,392.381l6.6-1.112-5.5-5.5Z" transform="translate(-763.558 -372.354)" fill="none" stroke="#8f96a5" stroke-linecap="round" stroke-linejoin="round" stroke-width="1.479"/>
    <path id="Path_7064" data-name="Path 7064" d="M766.5,391.885l-2.945.5.493-2.948Z" transform="translate(-763.558 -372.354)" fill="#8f96a5"/>
  </g>
</svg>
