<svg xmlns="http://www.w3.org/2000/svg" width="23.989" height="25.235" viewBox="0 0 23.989 25.235">
  <g id="icon_rewards-panel" transform="translate(0.888 0.732)">
    <g id="icon_invest-orange" data-name="icon invest-orange" transform="translate(-947.936 -372.856)">
      <circle id="Ellipse_47" data-name="Ellipse 47" cx="1.784" cy="1.784" r="1.784" transform="translate(954.524 375.864)" fill="none" stroke="#8f96a5" stroke-linecap="round" stroke-linejoin="round" stroke-width="1.463"/>
      <circle id="Ellipse_48" data-name="Ellipse 48" cx="1.784" cy="1.784" r="1.784" transform="translate(960.133 372.856)" fill="none" stroke="#8f96a5" stroke-linecap="round" stroke-linejoin="round" stroke-width="1.463"/>
      <circle id="Ellipse_49" data-name="Ellipse 49" cx="2.351" cy="2.351" r="2.351" transform="translate(959.566 379.183)" fill="none" stroke="#8f96a5" stroke-linecap="round" stroke-linejoin="round" stroke-width="1.463"/>
      <path id="Path_43" data-name="Path 43" d="M951.243,387.39l1.356-.947a5.451,5.451,0,0,1,3.118-.98h6.159a1.434,1.434,0,0,1,1.434,1.433h0a1.435,1.435,0,0,1-1.434,1.434h-3.665" transform="translate(0.255 0.974)" fill="none" stroke="#8f96a5" stroke-linecap="round" stroke-linejoin="round" stroke-width="1.463"/>
      <path id="Path_44" data-name="Path 44" d="M962.885,387.966l4.475-4.452a1.434,1.434,0,0,1,2.026,0h0a1.434,1.434,0,0,1,0,2.027h0l-5.685,5.833a4.084,4.084,0,0,1-2.927,1.235h-6.593l-1.478,1.459" transform="translate(0.368 0.791)" fill="none" stroke="#8f96a5" stroke-linecap="round" stroke-linejoin="round" stroke-width="1.463"/>
      <path id="Path_45" data-name="Path 45" d="M947.936,386.794l3.137-.785,2.17,8.675-3.087.772" transform="translate(0 1.016)" fill="none" stroke="#8f96a5" stroke-linecap="round" stroke-linejoin="round" stroke-width="1.463"/>
    </g>
  </g>
</svg>
