<svg xmlns="http://www.w3.org/2000/svg" width="25.802" height="25.898" viewBox="0 0 25.802 25.898">
  <g id="icon_withdraw-panel" transform="translate(0.75 0.75)">
    <path id="Path_60" data-name="Path 60" d="M762.776,4574.627h-1.163a3.253,3.253,0,0,1-3.253-3.252h0a3.253,3.253,0,0,1,3.253-3.253h17.8a3.253,3.253,0,0,1,3.253,3.253h0a3.253,3.253,0,0,1-3.253,3.252h-1.233" transform="translate(-758.36 -4568.121)" fill="none" stroke="#8f96a5" stroke-linecap="round" stroke-linejoin="round" stroke-width="1.5"/>
    <path id="Path_61" data-name="Path 61" d="M776.438,4584.665h2.343a3.171,3.171,0,0,0,3.108-3.8l-2.585-12.742H766.988l-2.585,12.742a3.171,3.171,0,0,0,3.108,3.8h2.342" transform="translate(-760.995 -4568.121)" fill="none" stroke="#8f96a5" stroke-linecap="round" stroke-linejoin="round" stroke-width="1.5"/>
    <g id="Group_115" data-name="Group 115" transform="translate(8.835 14.955)">
      <line id="Line_46" data-name="Line 46" y2="9.133" transform="translate(3.316)" fill="none" stroke="#8f96a5" stroke-linecap="round" stroke-linejoin="round" stroke-width="1.5"/>
      <g id="Group_114" data-name="Group 114" transform="translate(0 5.834)">
        <line id="Line_47" data-name="Line 47" x2="3.298" y2="3.298" fill="none" stroke="#8f96a5" stroke-linecap="round" stroke-linejoin="round" stroke-width="1.5"/>
        <line id="Line_48" data-name="Line 48" x1="3.298" y2="3.298" transform="translate(3.356)" fill="none" stroke="#8f96a5" stroke-linecap="round" stroke-linejoin="round" stroke-width="1.5"/>
      </g>
    </g>
    <ellipse id="Ellipse_80" data-name="Ellipse 80" cx="3.408" cy="2.679" rx="3.408" ry="2.679" transform="translate(8.835 5.789)" fill="none" stroke="#8f96a5" stroke-miterlimit="10" stroke-width="1.5"/>
  </g>
</svg>
