<svg xmlns="http://www.w3.org/2000/svg" width="29.452" height="21.408" viewBox="0 0 29.452 21.408">
  <g id="icon_users-panel" transform="translate(0.765 0.75)">
    <g id="icon_users-purple" data-name="icon users-purple" transform="translate(-580.628 -367.262)">
      <path id="Path_65" data-name="Path 65" d="M588.657,377.216a9.942,9.942,0,0,1,.423-2.862,2.647,2.647,0,1,0-.481,3.713c.033-.026.066-.052.1-.079C588.676,377.732,588.657,377.476,588.657,377.216Z" fill="none" stroke="#8f96a5" stroke-linecap="round" stroke-linejoin="round" stroke-width="1.5"/>
      <circle id="Ellipse_123" data-name="Ellipse 123" cx="9.954" cy="9.954" r="9.954" transform="translate(588.657 367.262)" fill="none" stroke="#8f96a5" stroke-linecap="round" stroke-linejoin="round" stroke-width="1.5"/>
      <circle id="Ellipse_122" data-name="Ellipse 122" cx="4.14" cy="4.14" r="4.14" transform="translate(594.47 371.129)" fill="none" stroke="#8f96a5" stroke-linecap="round" stroke-linejoin="round" stroke-width="1.5"/>
      <path id="Path_5611" data-name="Path 5611" d="M604.971,384.758a9.241,9.241,0,0,0-12.726,0" fill="none" stroke="#8f96a5" stroke-linecap="round" stroke-linejoin="round" stroke-width="1.5"/>
      <path id="Path_66" data-name="Path 66" d="M588.657,377.216a9.9,9.9,0,0,1,1.625-5.441,6.36,6.36,0,1,0,0,10.882A9.9,9.9,0,0,1,588.657,377.216Z" fill="none" stroke="#8f96a5" stroke-linecap="round" stroke-linejoin="round" stroke-width="1.5"/>
      <path id="Path_67" data-name="Path 67" d="M589.378,380.917a5.9,5.9,0,0,0-6.442,1.118" fill="none" stroke="#8f96a5" stroke-linecap="round" stroke-linejoin="round" stroke-width="1.5"/>
    </g>
  </g>
</svg>
