<svg xmlns="http://www.w3.org/2000/svg" width="20.584" height="20.537" viewBox="0 0 20.584 20.537">
  <g id="icon_faq-panel" transform="translate(0.75 0.75)">
    <g id="icon_ask-quote-white" data-name="icon ask-quote-white">
      <path id="Path_5926" data-name="Path 5926" d="M780.959,390.521a9.425,9.425,0,0,1-5.525-1.764c-.146-.1-.492-.2-.6-.093l-2.182.6.6-2.182a.926.926,0,0,0-.094-.6,9.433,9.433,0,0,1-1.764-5.525,9.542,9.542,0,1,1,9.565,9.564Z" transform="translate(-771.394 -371.484)" fill="none" stroke="#8f96a5" stroke-linecap="round" stroke-miterlimit="10" stroke-width="1.5"/>
      <path id="Path_5927" data-name="Path 5927" d="M779.47,379.179a3.005,3.005,0,0,1,3.005-3.005h0a3,3,0,0,1,3.005,2.993v.012c-.015,3.093-3.047,2.214-3.047,4.487" transform="translate(-772.952 -372.389)" fill="none" stroke="#8f96a5" stroke-linecap="round" stroke-miterlimit="10" stroke-width="1.5"/>
      <circle id="Ellipse_186" data-name="Ellipse 186" cx="1.105" cy="1.105" r="1.105" transform="translate(8.418 13.049)" fill="#8f96a5"/>
    </g>
  </g>
</svg>
