<svg id="logo_lxr" xmlns="http://www.w3.org/2000/svg" width="28.549" height="28.09" viewBox="0 0 28.549 28.09">
  <g id="Group_2873" data-name="Group 2873">
    <ellipse id="Ellipse_164" data-name="Ellipse 164" cx="1.57" cy="1.576" rx="1.57" ry="1.576" transform="translate(22.211)" fill="#2af6ff"/>
    <ellipse id="Ellipse_165" data-name="Ellipse 165" cx="0.863" cy="0.867" rx="0.863" ry="0.867" transform="translate(26.823 1.752)" fill="#2af6ff"/>
    <path id="Path_1474" data-name="Path 1474" d="M493.184,253.514a1.834,1.834,0,0,0-2.6,0l2.6,2.612A1.853,1.853,0,0,0,493.184,253.514Z" transform="translate(-467.445 -248.558)" fill="#2af6ff"/>
    <path id="Path_7121" data-name="Path 7121" d="M710.721,3958.55l-2.85,2.862a.715.715,0,0,1-.865.116,10.339,10.339,0,1,0,3.822,14.125,10.39,10.39,0,0,0,0-10.287.722.722,0,0,1,.115-.868l2.85-2.862Z" transform="translate(-690.145 -3954.213)" fill="#fff"/>
    <path id="Path_7086" data-name="Path 7086" d="M710.341,3996.941c1.608,5.375-2.675,11.155-6.556,12.771a10.955,10.955,0,0,1-15.085-9.146C701.588,4005.6,698.4,3997.129,710.341,3996.941Z" transform="translate(-687.979 -3983.063)" fill="#2af6ff"/>
    <path id="Path_7087" data-name="Path 7087" d="M688.759,4001.9a11.359,11.359,0,0,0,6.706,11.306,10.955,10.955,0,0,0,15.085-9.146C697.662,4009.1,697.9,3999.825,688.759,4001.9Z" transform="translate(-687.978 -3986.559)" fill="#6d51f3"/>
    <ellipse id="Ellipse_164-2" data-name="Ellipse 164" cx="2.469" cy="2.48" rx="2.469" ry="2.48" transform="translate(8.84 9.542)" fill="#2af6ff"/>
    <ellipse id="Ellipse_164-2-2" data-name="Ellipse 164-2" cx="1.34" cy="1.346" rx="1.34" ry="1.346" transform="translate(15.906 8.87)" fill="#2af6ff"/>
    <path id="Path_1473" data-name="Path 1473" d="M768.3,3954.858l-6.118-6.145a.723.723,0,0,1,.025-1.019.716.716,0,0,1,.99,0l6.118,6.144a.723.723,0,0,1-.025,1.019.715.715,0,0,1-.99,0Z" transform="translate(-743.13 -3945.906)" fill="#6d51f3"/>
    <path id="Path_7122" data-name="Path 7122" d="M710.955,3955.864l-4.087-4.105a.715.715,0,0,0-1.015,0l-2.979,2.992a11.7,11.7,0,0,0-13.652,2.159,11.828,11.828,0,0,0,0,16.676,11.755,11.755,0,0,0,18.753-13.71l2.978-2.992A.723.723,0,0,0,710.955,3955.864Zm-4.372,3.372a.723.723,0,0,0-.115.869,10.388,10.388,0,0,1,0,10.287,10.316,10.316,0,1,1-3.821-14.125.715.715,0,0,0,.865-.116l2.85-2.862,3.072,3.086Z" transform="translate(-685.784 -3948.951)" fill="#6d51f3"/>
  </g>
</svg>
