<svg xmlns="http://www.w3.org/2000/svg" width="238.769" height="41.437" viewBox="0 0 238.769 41.437">
  <g id="logo_truepay-inverse" transform="translate(0 0)">
    <g id="Group_2695" data-name="Group 2695" transform="translate(43.102 6.918)">
      <path id="Path_7133" data-name="Path 7133" d="M1052.188,3330.421a1.684,1.684,0,1,0-3.1,1.313l2.874,6.83h-25.335a1.688,1.688,0,0,0,0,3.376H1054.5a1.688,1.688,0,0,0,1.551-2.344Z" transform="translate(-879.65 -3308.558)" fill="#fff"/>
      <path id="Path_7134" data-name="Path 7134" d="M1052.036,3256.377a1.679,1.679,0,0,0,1.861.343l16.23-7.167a1.69,1.69,0,0,0,.873-2.2l-6.58-15.638a1.683,1.683,0,0,0-1.55-1.032h0a1.683,1.683,0,0,0-1.55,1.029l-9.65,22.805A1.691,1.691,0,0,0,1052.036,3256.377Zm10.828-19.675,4.389,10.431-10.825,4.78Z" transform="translate(-900.647 -3230.682)" fill="#fff"/>
      <path id="Path_7135" data-name="Path 7135" d="M361.053,3235.726H336.27a1.688,1.688,0,0,0,0,3.376h10.85v27.215a1.684,1.684,0,1,0,3.367,0V3239.1h10.565a1.688,1.688,0,0,0,0-3.376Z" transform="translate(-334.586 -3234.662)" fill="#fff"/>
      <path id="Path_7136" data-name="Path 7136" d="M500.881,3257.449a11.3,11.3,0,0,0-4.326-21.723h-15.52a1.686,1.686,0,0,0-1.684,1.688v29.129a1.684,1.684,0,1,0,3.367,0v-8.227h13.836c.215,0,.428-.007.64-.019l7.809,9.332a1.686,1.686,0,1,0,2.58-2.171ZM482.718,3239.1h13.836a7.92,7.92,0,0,1,1.512,15.69,1.675,1.675,0,0,0-.859.118c-.215.018-.432.029-.652.029H482.718Z" transform="translate(-448.884 -3234.662)" fill="#fff"/>
      <path id="Path_7137" data-name="Path 7137" d="M652.866,3235.682a1.686,1.686,0,0,0-1.684,1.688v16.256a11.164,11.164,0,1,1-22.328,0V3237.37a1.684,1.684,0,1,0-3.367,0v16.256a14.531,14.531,0,1,0,29.063,0V3237.37A1.686,1.686,0,0,0,652.866,3235.682Z" transform="translate(-564.265 -3234.626)" fill="#fff"/>
      <path id="Path_7138" data-name="Path 7138" d="M834.545,3246.986a11.292,11.292,0,0,0-11.264-11.295h-15.3a1.611,1.611,0,0,0-.176-.01H777.568a1.686,1.686,0,0,0-1.684,1.688v29.139a1.686,1.686,0,0,0,1.684,1.688h21.184a1.688,1.688,0,0,0,0-3.377h-19.5v-8.611h16.041a1.688,1.688,0,0,0,0-3.377H779.251v-13.774h26.8v27.147a1.684,1.684,0,1,0,3.367,0v-7.924h13.858A11.293,11.293,0,0,0,834.545,3246.986Zm-25.1-7.918h13.836a7.918,7.918,0,0,1,0,15.837H809.445Z" transform="translate(-683.009 -3234.626)" fill="#fff"/>
      <path id="Path_7139" data-name="Path 7139" d="M1162.325,3232.407a1.68,1.68,0,0,0-2.365.277l-10.5,13.322-10.5-13.322a1.685,1.685,0,1,0-2.642,2.094l11.492,14.577v14.018a1.684,1.684,0,1,0,3.367,0v-14.1l11.429-14.5A1.691,1.691,0,0,0,1162.325,3232.407Z" transform="translate(-967.297 -3231.756)" fill="#fff"/>
    </g>
    <path id="Path_7140" data-name="Path 7140" d="M165.16,3241.193H151.44a2.39,2.39,0,0,0-2.386,2.393v7.13h16.883a6.618,6.618,0,0,1,6.609,6.627h0a6.618,6.618,0,0,1-6.609,6.627H149.054v7.13a2.39,2.39,0,0,0,2.386,2.393H165.16a16.128,16.128,0,0,0,16.106-16.15h0A16.128,16.128,0,0,0,165.16,3241.193Z" transform="translate(-144.999 -3232.056)" fill="#2af6ff"/>
    <path id="Path_7141" data-name="Path 7141" d="M161.022,3201.829q2.15-1.57,4.307-3.129c1.94-1.406,3.688-.97,4.92,1.348l-12.492,4.238C158.083,3204.074,160.068,3202.526,161.022,3201.829Z" transform="translate(-151.869 -3197.897)" fill="#138bbd"/>
    <rect id="Rectangle_3811" data-name="Rectangle 3811" width="15.109" height="5.792" rx="2.896" transform="translate(0 22.39)" fill="#6d51f3"/>
    <path id="Path_7142" data-name="Path 7142" d="M191.035,3218.4c-.279-2.871-2.438-3.964-4.489-3.095-1.453.616-2.989,1.035-4.488,1.543l-4.569,1.551Z" transform="translate(-167.449 -3211.405)" fill="#138bbd"/>
    <ellipse id="Ellipse_318" data-name="Ellipse 318" cx="2.888" cy="2.896" rx="2.888" ry="2.896" transform="translate(17.902 22.39)" fill="#feeca8"/>
  </g>
</svg>
