<svg id="Group_1626" data-name="Group 1626" xmlns="http://www.w3.org/2000/svg" width="28.297" height="40.17" viewBox="0 0 28.297 40.17">
  <path id="Path_1471" data-name="Path 1471" d="M438.467,2310.089a13.187,13.187,0,1,0,24.362,0C453.973,2310.084,446.132,2306.389,438.467,2310.089Z" transform="translate(-436.675 -2288.879)" fill="#6d51f3"/>
  <ellipse id="Ellipse_164" data-name="Ellipse 164" cx="1.892" cy="1.885" rx="1.892" ry="1.885" transform="translate(9.827 1.586)" fill="#2af6ff"/>
  <ellipse id="Ellipse_165" data-name="Ellipse 165" cx="1.04" cy="1.036" rx="1.04" ry="1.036" transform="translate(14.89)" fill="#2af6ff"/>
  <path id="Path_1472" data-name="Path 1472" d="M448.972,2298.7a14.094,14.094,0,0,1-4.347-27.518v-5.059a.863.863,0,0,1,.865-.862h6.966a.863.863,0,0,1,.865.862v5.059a14.094,14.094,0,0,1-4.348,27.518Zm-2.618-31.716v4.84a.862.862,0,0,1-.638.832,12.419,12.419,0,1,0,6.513,0,.862.862,0,0,1-.638-.832v-4.84Z" transform="translate(-434.824 -2258.528)" fill="#6d51f3"/>
  <path id="Path_1474" data-name="Path 1474" d="M484.117,2258.312a2.213,2.213,0,0,0-2.216,2.209h4.432A2.212,2.212,0,0,0,484.117,2258.312Z" transform="translate(-467.863 -2253.646)" fill="#2af6ff"/>
  <g id="Group_1625" data-name="Group 1625" transform="translate(6.279 18.758)">
    <path id="Rectangle_104" data-name="Rectangle 104" d="M3.769,0h0A3.769,3.769,0,0,1,7.538,3.769V7.512a0,0,0,0,1,0,0H0a0,0,0,0,1,0,0V3.769A3.769,3.769,0,0,1,3.769,0Z" transform="translate(3.769)" fill="#138bbd"/>
    <path id="Path_1475" data-name="Path 1475" d="M475.76,2342.418l-1.844,1.838a.41.41,0,0,0,.291.7H477.9a.41.41,0,0,0,.291-.7l-1.844-1.838A.413.413,0,0,0,475.76,2342.418Z" transform="translate(-468.453 -2331.431)" fill="#feeca8"/>
    <path id="Path_1476" data-name="Path 1476" d="M467.189,2318.371h-7.538a3.763,3.763,0,0,0-3.769,3.756h0a3.763,3.763,0,0,0,3.769,3.756h0a3.768,3.768,0,0,0,3.331-2,.486.486,0,0,1,.875,0,3.771,3.771,0,0,0,7.1-1.755h0A3.763,3.763,0,0,0,467.189,2318.371Z" transform="translate(-455.882 -2314.615)" fill="#2af6ff"/>
    <g id="Group_1624" data-name="Group 1624" transform="translate(1.8 5.464)">
      <g id="Group_1622" data-name="Group 1622" transform="translate(8.855 0)">
        <ellipse id="Ellipse_166" data-name="Ellipse 166" cx="0.633" cy="0.631" rx="0.633" ry="0.631" fill="#2e1c89"/>
        <ellipse id="Ellipse_167" data-name="Ellipse 167" cx="0.633" cy="0.631" rx="0.633" ry="0.631" transform="translate(0 2.654)" fill="#2e1c89"/>
      </g>
      <g id="Group_1623" data-name="Group 1623" transform="translate(7.523 1.327)">
        <ellipse id="Ellipse_168" data-name="Ellipse 168" cx="0.633" cy="0.631" rx="0.633" ry="0.631" fill="#2e1c89"/>
        <ellipse id="Ellipse_169" data-name="Ellipse 169" cx="0.633" cy="0.631" rx="0.633" ry="0.631" transform="translate(2.663)" fill="#2e1c89"/>
      </g>
      <rect id="Rectangle_105" data-name="Rectangle 105" width="3.929" height="1.261" rx="0.631" transform="translate(0 1.327)" fill="#2e1c89"/>
      <rect id="Rectangle_106" data-name="Rectangle 106" width="3.915" height="1.265" rx="0.633" transform="translate(1.332 3.915) rotate(-90)" fill="#2e1c89"/>
    </g>
  </g>
  <path id="Path_1473" data-name="Path 1473" d="M473.179,2266.982H462.753a.862.862,0,1,1,0-1.723h10.427a.862.862,0,1,1,0,1.723Z" transform="translate(-453.818 -2258.528)" fill="#6d51f3"/>
</svg>
