<svg id="circle_stroke" xmlns="http://www.w3.org/2000/svg" xmlns:xlink="http://www.w3.org/1999/xlink" width="80.169" height="80.168" viewBox="0 0 80.169 80.168">
  <defs>
    <linearGradient id="linear-gradient" y1="0.5" x2="1" y2="0.5" gradientUnits="objectBoundingBox">
      <stop offset="0" stop-color="#fff"/>
      <stop offset="0" stop-color="#feeca8"/>
      <stop offset="1" stop-color="#6b24d6"/>
    </linearGradient>
  </defs>
  <path id="Path_54" data-name="Path 54" d="M-50.875,2816.279a40.658,40.658,0,0,1-6.242-.479,1,1,0,0,1-.834-1.143,1,1,0,0,1,1.143-.834,38.406,38.406,0,0,0,5.917.457,1.018,1.018,0,0,1,1.02,1,.983.983,0,0,1-.98,1v-1l0,1Zm6.133-.479a1,1,0,0,1-.986-.844,1,1,0,0,1,.832-1.143,38.084,38.084,0,0,0,5.806-1.4,1,1,0,0,1,1.26.642,1,1,0,0,1-.641,1.26,39.969,39.969,0,0,1-6.113,1.468A.958.958,0,0,1-44.742,2815.8Zm-18.184-1.407a1,1,0,0,1-.307-.049,39.588,39.588,0,0,1-5.814-2.4,1,1,0,0,1-.438-1.344,1,1,0,0,1,1.345-.437,37.814,37.814,0,0,0,5.522,2.281,1,1,0,0,1,.644,1.259A1,1,0,0,1-62.926,2814.393Zm29.807-2.376a1,1,0,0,1-.891-.544,1,1,0,0,1,.435-1.347A38.267,38.267,0,0,0-28.489,2807a1,1,0,0,1,1.4.22,1,1,0,0,1-.219,1.4,40.219,40.219,0,0,1-5.353,3.292A1,1,0,0,1-33.119,2812.017Zm-40.706-3.167a.994.994,0,0,1-.586-.191,40.338,40.338,0,0,1-4.784-4.078,1,1,0,0,1,0-1.414,1,1,0,0,1,1.414,0,38.439,38.439,0,0,0,4.547,3.875,1,1,0,0,1,.222,1.4A1,1,0,0,1-73.825,2808.85Zm50.582-4.029a1,1,0,0,1-.707-.293,1,1,0,0,1,0-1.414,38.365,38.365,0,0,0,3.881-4.542,1,1,0,0,1,1.4-.22,1,1,0,0,1,.221,1.4,40.281,40.281,0,0,1-4.084,4.78A.991.991,0,0,1-23.243,2804.821Zm-59.235-4.6a1,1,0,0,1-.808-.41,40.388,40.388,0,0,1-3.3-5.351,1,1,0,0,1,.433-1.346,1,1,0,0,1,1.346.434,38.356,38.356,0,0,0,3.133,5.083,1,1,0,0,1-.218,1.4A.994.994,0,0,1-82.478,2800.219Zm66.423-5.285a1,1,0,0,1-.454-.11,1,1,0,0,1-.436-1.345,37.9,37.9,0,0,0,2.287-5.52,1,1,0,0,1,1.26-.643,1,1,0,0,1,.643,1.26,39.913,39.913,0,0,1-2.409,5.812A1,1,0,0,1-16.055,2794.934Zm-72-5.59a1,1,0,0,1-.95-.69,40.1,40.1,0,0,1-1.475-6.112,1,1,0,0,1,.831-1.145,1,1,0,0,1,1.145.831,37.847,37.847,0,0,0,1.4,5.8,1,1,0,0,1-.64,1.261A.993.993,0,0,1-88.052,2789.344Zm75.772-6.037a1.04,1.04,0,0,1-.157-.012,1,1,0,0,1-.832-1.144,38.512,38.512,0,0,0,.462-5.956v-.158a1,1,0,0,1,1-1,1,1,0,0,1,1,1v.15a40.565,40.565,0,0,1-.486,6.275A1,1,0,0,1-12.28,2783.307Zm-77.7-6.072a.967.967,0,0,1-1-.961v-.079a40.65,40.65,0,0,1,.474-6.185,1.008,1.008,0,0,1,1.141-.835,1,1,0,0,1,.836,1.141,38.576,38.576,0,0,0-.451,5.879A1.035,1.035,0,0,1-89.976,2777.235Zm77.668-6.306a1,1,0,0,1-.986-.841,37.866,37.866,0,0,0-1.412-5.8,1,1,0,0,1,.638-1.263,1,1,0,0,1,1.262.638,39.967,39.967,0,0,1,1.487,6.11,1,1,0,0,1-.828,1.146A.985.985,0,0,1-12.308,2770.929ZM-88.1,2765.2a.986.986,0,0,1-.306-.048,1,1,0,0,1-.645-1.258,39.8,39.8,0,0,1,2.4-5.817,1,1,0,0,1,1.344-.439,1,1,0,0,1,.439,1.343,38,38,0,0,0-2.276,5.526A1,1,0,0,1-88.1,2765.2Zm71.978-5.879a1,1,0,0,1-.89-.542,38.246,38.246,0,0,0-3.143-5.078,1,1,0,0,1,.215-1.4,1,1,0,0,1,1.4.216,40.175,40.175,0,0,1,3.308,5.343,1,1,0,0,1-.431,1.347A.991.991,0,0,1-16.123,2759.32Zm-66.446-5.024a.994.994,0,0,1-.586-.191,1,1,0,0,1-.223-1.4,40.37,40.37,0,0,1,4.074-4.788,1,1,0,0,1,1.414,0,1,1,0,0,1,0,1.415,38.109,38.109,0,0,0-3.871,4.55A1,1,0,0,1-82.569,2754.3Zm59.22-4.832a1,1,0,0,1-.7-.29,38.246,38.246,0,0,0-4.555-3.867,1,1,0,0,1-.224-1.4,1,1,0,0,1,1.4-.224,40.308,40.308,0,0,1,4.792,4.068,1,1,0,0,1,.005,1.414A1,1,0,0,1-23.349,2749.464Zm-50.6-3.831a1,1,0,0,1-.808-.409,1,1,0,0,1,.216-1.4,40.589,40.589,0,0,1,5.347-3.3,1,1,0,0,1,1.346.432,1,1,0,0,1-.431,1.348,38.344,38.344,0,0,0-5.081,3.138A1,1,0,0,1-73.945,2745.633Zm40.685-3.328a.977.977,0,0,1-.451-.109,38,38,0,0,0-5.527-2.269,1,1,0,0,1-.646-1.258,1.006,1.006,0,0,1,1.258-.647,39.831,39.831,0,0,1,5.819,2.391,1,1,0,0,1,.44,1.344A1,1,0,0,1-33.26,2742.3Zm-29.817-2.257a1,1,0,0,1-.95-.689,1,1,0,0,1,.639-1.261,40.059,40.059,0,0,1,6.11-1.482,1,1,0,0,1,1.146.829,1,1,0,0,1-.829,1.146,38.006,38.006,0,0,0-5.8,1.407A1,1,0,0,1-63.077,2740.048Zm18.181-1.481a1.138,1.138,0,0,1-.154-.011,38.634,38.634,0,0,0-5.841-.445h-.119a1,1,0,0,1-1-1,1,1,0,0,1,1-1h.1a40.682,40.682,0,0,1,6.164.468,1,1,0,0,1,.836,1.14A1,1,0,0,1-44.9,2738.567Z" transform="translate(90.976 -2736.111)" fill="url(#linear-gradient)"/>
</svg>
