<svg id="Group_51" data-name="Group 51" xmlns="http://www.w3.org/2000/svg" width="599.191" height="30.297" viewBox="0 0 599.191 30.297">
  <g id="logo_litecoin-gray" transform="translate(45.301 3.688)">
    <path id="Path_17" data-name="Path 17" d="M506.279,1722.459l-1.826,6.155h9.763a.493.493,0,0,1,.51.475h0v.162l-.849,2.929a.634.634,0,0,1-.637.467H498.3l2.505-8.533-2.8.849.637-1.952,2.8-.849,3.523-11.971a.639.639,0,0,1,.636-.466h3.778a.493.493,0,0,1,.51.474h0v.161l-2.972,10.1,2.8-.849-.594,2.037Z" transform="translate(-498.001 -1709.725)" fill="#bdc3d0"/>
  </g>
  <g id="logo_tether-gray" transform="translate(88.752 4.615)">
    <path id="Path_18" data-name="Path 18" d="M555.214,1721.977h0c-.13.01-.8.05-2.3.05-1.191,0-2.037-.036-2.334-.05h0c-4.6-.2-8.04-1-8.04-1.964s3.437-1.759,8.04-1.965v3.131c.3.021,1.163.072,2.355.072,1.429,0,2.145-.059,2.274-.071v-3.13c4.594.2,8.022,1.006,8.022,1.963s-3.427,1.759-8.022,1.963h0Zm0-4.251v-2.8h6.411v-4.273H544.17v4.273h6.41v2.8c-5.21.239-9.128,1.271-9.128,2.508s3.918,2.268,9.128,2.508v8.978h4.633v-8.981c5.2-.239,9.11-1.27,9.11-2.506s-3.909-2.267-9.11-2.507h0Zm0,0" transform="translate(-541.452 -1710.652)" fill="#bdc3d0" fill-rule="evenodd"/>
  </g>
  <g id="logo_crypto_com-gray" transform="translate(361.828)">
    <path id="Path_19" data-name="Path 19" d="M827.594,1706.037l13.121,7.557v15.161l-13.106,7.579-.106-.026-12.975-7.553v-15.161l12.975-7.557Zm-.043,1.568-11.645,6.782v13.576l11.644,6.779,1.422-.822,10.365-5.961v-13.57l-10.365-5.995Zm-9.84,14.624,3.447-2.577,3.047,1.946v3.5l2.306,2.221,0,1.042-2.221,2.082h-1.876l-4.7-8.215Zm10.892,6.136,0-1.047,2.3-2.219v-3.5l3.014-1.971,3.44,2.6-4.676,8.19h-1.853Zm-3.266-6.767-1.122-2.937h6.668l-1.1,2.937.325,3.283-2.573.005-2.543,0Zm2.2-3.742-6.337,0,1.178-5.265h10.287l1.241,5.272Z" transform="translate(-814.528 -1706.037)" fill="#bdc3d0"/>
  </g>
  <g id="logo_chainlink-gray" transform="translate(138.349)">
    <g id="Layer_1-2" data-name="Layer 1-2">
      <path id="Path_20" data-name="Path 20" d="M604.182,1706.037l-2.779,1.6-7.575,4.378-2.779,1.6v15.149l2.779,1.6,7.644,4.378,2.78,1.6,2.779-1.6,7.505-4.378,2.78-1.6v-15.149l-2.78-1.6-7.574-4.378Zm-7.574,19.527v-8.756l7.574-4.378,7.575,4.378v8.756l-7.575,4.377Z" transform="translate(-591.049 -1706.037)" fill="#bdc3d0"/>
    </g>
  </g>
  <g id="logo_ethereum-gray" transform="translate(581.593 0.895)">
    <g id="Group_2065" data-name="Group 2065" transform="translate(-0.001 0.001)">
      <path id="Path_23" data-name="Path 23" d="M1034.292,1722.457c3.1,1.647,6.336,3.37,8.835,4.7l8.763-4.7c-3.173,4.714-5.816,8.638-8.763,12.981C1040.176,1731.1,1036.916,1726.323,1034.292,1722.457Z" transform="translate(-1034.291 -1706.934)" fill="#bdc3d0"/>
      <path id="Path_24" data-name="Path 24" d="M1034.629,1721.157l8.508-4.54,8.4,4.507-8.392,4.545Z" transform="translate(-1034.291 -1706.934)" fill="#bdc3d0"/>
      <path id="Path_25" data-name="Path 25" d="M1043.127,1715.162l-8.835,4.651,8.8-12.88,8.8,12.909Z" transform="translate(-1034.291 -1706.934)" fill="#bdc3d0"/>
      <path id="path1593" d="M1043.127,1727.161l8.763-4.7c-3.173,4.714-8.763,12.981-8.763,12.981Zm.01-10.544,8.4,4.506-8.392,4.545Zm-.01-1.455-.038-8.229,8.8,12.909Z" transform="translate(-1034.291 -1706.934)" fill="#acb3c1"/>
      <path id="path1603" d="M1034.629,1721.157l8.508.7,8.4-.727-8.393,4.545Z" transform="translate(-1034.291 -1706.934)" fill="#8f96a5"/>
      <path id="path1606" d="M1043.137,1721.855l8.4-.727-8.392,4.545Z" transform="translate(-1034.291 -1706.934)" fill="#818795"/>
    </g>
  </g>
  <g id="logo_tron-gray" transform="translate(527.203 0.596)">
    <path id="Path_26" data-name="Path 26" d="M1007.19,1715.4c-1.365-1.26-3.252-3.183-4.789-4.548l-.091-.063a1.716,1.716,0,0,0-.505-.282h0c-3.706-.692-20.956-3.916-21.293-3.875a.625.625,0,0,0-.263.1l-.087.068a1.018,1.018,0,0,0-.236.382l-.023.059v.373c1.942,5.408,9.609,23.121,11.119,27.278.091.282.264.819.587.846h.073c.172,0,.909-.973.909-.973s13.171-15.972,14.5-17.673a4.3,4.3,0,0,0,.455-.673A1.1,1.1,0,0,0,1007.19,1715.4Zm-11.22,1.86,5.621-4.661,3.3,3.038Zm-2.183-.3-9.677-7.931,15.658,2.888Zm.873,2.079,9.906-1.6-11.324,13.644Zm-11.865-9.219,10.183,8.641-1.474,12.634Z" transform="translate(-979.903 -1706.633)" fill="#bdc3d0"/>
  </g>
  <g id="logo_bittorrent-gray" transform="translate(471.974 0.896)">
    <path id="Path_27" data-name="Path 27" d="M952.884,1718.321a14.153,14.153,0,0,0-.833-2.675,14.447,14.447,0,0,0-1.315-2.427,14.388,14.388,0,0,0-3.845-3.844,14.953,14.953,0,0,0-2.426-1.315,14.278,14.278,0,0,0-17.35,5.159,14.932,14.932,0,0,0-1.316,2.427,14.194,14.194,0,0,0,0,11.08,14.5,14.5,0,0,0,1.316,2.425A14.373,14.373,0,0,0,930.96,1733a15.008,15.008,0,0,0,2.425,1.316,14.2,14.2,0,0,0,11.08,0,14.5,14.5,0,0,0,2.426-1.316,14.373,14.373,0,0,0,3.845-3.845,14.932,14.932,0,0,0,1.315-2.425A14.184,14.184,0,0,0,952.884,1718.321Zm-13.946,15.333a12.454,12.454,0,1,1,12.454-12.454A12.454,12.454,0,0,1,938.938,1733.654Z" transform="translate(-924.673 -1706.933)" fill="#bdc3d0"/>
    <path id="Path_28" data-name="Path 28" d="M939.159,1732.572h.337a.682.682,0,0,0,.174-.015h.016a.621.621,0,0,0,.16-.014h.044a.388.388,0,0,0,.131-.015h.044c.044,0,.089-.014.147-.014h.029c.058,0,.117-.016.175-.016a.639.639,0,0,0,.161-.028h.029c.044,0,.088-.015.131-.015h.03c.059-.015.1-.015.161-.029a2.558,2.558,0,0,0,.336-.073h.03c.043-.015.1-.015.145-.03h.015c.117-.029.219-.059.336-.087a13.118,13.118,0,0,1-3.259-.307,10.229,10.229,0,0,1-4.444-2.062,9,9,0,0,1-3.244-7,8.5,8.5,0,0,1,2-5.437,8.679,8.679,0,0,1,6.46-3.07h.336v-1.943h-.379a10.929,10.929,0,0,0-2.193.262,10.55,10.55,0,0,0-2.1.716,10.864,10.864,0,0,0-1.931,1.17,10.271,10.271,0,0,0-1.68,1.608,9.882,9.882,0,0,0-1.213,1.8,10.274,10.274,0,0,0-.8,1.943,10.65,10.65,0,0,0-.394,2.033l-.044.642v.38a11.057,11.057,0,0,0,.263,2.193,10.533,10.533,0,0,0,.716,2.1,9.084,9.084,0,0,0,2,2.88,11.306,11.306,0,0,0,7.015,2.426Z" transform="translate(-924.673 -1706.933)" fill="#bdc3d0"/>
    <path id="Path_29" data-name="Path 29" d="M942.345,1730.7a14.884,14.884,0,0,1-2.148-.234,8.206,8.206,0,0,1-6.548-5.159,6.363,6.363,0,0,1,3.975-8.142,6.248,6.248,0,0,1,1.988-.322,6.721,6.721,0,0,1,2.515.5l.817-1.739c-.245-.1-.494-.191-.744-.277a8.61,8.61,0,0,0-2.588-.395,8.245,8.245,0,0,0-5.466,2.09,8.306,8.306,0,0,0-1.1,1.184,7.889,7.889,0,0,0-.833,1.359,8.223,8.223,0,0,0-.819,3.085,8.312,8.312,0,0,0,.438,3.273,8.068,8.068,0,0,0,1.755,2.909,9.388,9.388,0,0,0,2.557,1.9,11.478,11.478,0,0,0,3.712,1.039,23.6,23.6,0,0,0,2.734.146c.6-.22.847-.323,1.169-.454.278-.131.555-.263.834-.424s.322-.191.789-.5a.9.9,0,0,0,.117-.089A13.032,13.032,0,0,1,942.345,1730.7Z" transform="translate(-924.673 -1706.933)" fill="#bdc3d0"/>
    <path id="Path_30" data-name="Path 30" d="M945.942,1728.523c-.454.029-1.1.072-1.828.072a13.983,13.983,0,0,1-4.253-.569c-2.106-.7-4.093-2.5-4.093-4.722a4,4,0,0,1,4-4h.007a4.017,4.017,0,0,1,3.494,2.046l1.739-.862a5.625,5.625,0,0,0-1.039-1.388,5.928,5.928,0,0,0-8.383-.008l-.007.008a5.924,5.924,0,0,0-1.739,4.194,5.836,5.836,0,0,0,.513,2.368,7.135,7.135,0,0,0,1.271,1.887,8.943,8.943,0,0,0,3.64,2.308,14.68,14.68,0,0,0,5.189.468,10.816,10.816,0,0,0,1.592-.234,10.981,10.981,0,0,0,1.755-1.739C947.344,1728.392,946.511,1728.479,945.942,1728.523Z" transform="translate(-924.673 -1706.933)" fill="#bdc3d0"/>
  </g>
  <g id="logo_basic_attention-gray" transform="translate(246.572 1.056)">
    <path id="Path_31" data-name="Path 31" d="M732.066,1735.24l-16.318-9.344-16.476,9.383Z" transform="translate(-699.272 -1707.093)" fill="#8f96a5"/>
    <path id="Path_32" data-name="Path 32" d="M715.753,1707.093l-.005,18.8,16.318,9.344Z" transform="translate(-699.272 -1707.093)" fill="#acb3c1"/>
    <path id="Path_33" data-name="Path 33" d="M699.272,1735.279l16.476-9.383.005-18.8Z" transform="translate(-699.272 -1707.093)" fill="#bdc3d0"/>
    <path id="Path_34" data-name="Path 34" d="M715.714,1718.5l-6.736,11.253h13.5l-6.767-11.253Z" transform="translate(-699.272 -1707.093)" fill="#fff" stroke="#bdc3d0" stroke-miterlimit="10" stroke-width="0.41"/>
  </g>
  <g id="logo_ripple-gray" transform="translate(306.092 3.137)">
    <g id="Group_50" data-name="Group 50">
      <path id="byVector" d="M783.547,1709.174h4.186l-8.716,8.649a8.135,8.135,0,0,1-11.44,0l-8.739-8.649h4.186l6.635,6.566a5.155,5.155,0,0,0,7.252,0Z" transform="translate(-758.792 -1709.174)" fill="#bdc3d0"/>
      <path id="byVector_2" data-name="byVector 2" d="M762.978,1733.2h-4.186l8.785-8.694a8.135,8.135,0,0,1,11.44,0l8.785,8.694h-4.188l-6.7-6.613a5.155,5.155,0,0,0-7.252,0Z" transform="translate(-758.792 -1709.174)" fill="#bdc3d0"/>
    </g>
  </g>
  <g id="logo_bittorrent-gray-2" data-name="logo_bittorrent-gray" transform="translate(414.741 2.243)">
    <g id="Layer_1-2-2" data-name="Layer 1-2">
      <path id="Path_35" data-name="Path 35" d="M893.642,1711.658l-3.674,1.872-17.737,9.034a10.565,10.565,0,0,1,15.628-10.591l2.1-1.071.313-.16a12.906,12.906,0,0,0-20.487,10.446q0,.493.037.983a2.347,2.347,0,0,1-1.275,2.269l-1.109.565v2.637l3.264-1.664h0l1.057-.539,1.042-.531h0l18.7-9.527,2.1-1.07,4.343-2.214v-2.635Z" transform="translate(-867.441 -1708.28)" fill="#bdc3d0"/>
      <path id="Path_36" data-name="Path 36" d="M897.947,1714.735,873.866,1727l-2.1,1.073-4.324,2.2v2.634l4.294-2.187,3.674-1.872,17.755-9.047a10.735,10.735,0,0,1,.09,1.388,10.566,10.566,0,0,1-15.734,9.21l-.129.069-2.279,1.161a12.907,12.907,0,0,0,20.489-10.44c0-.331-.013-.663-.038-.991a2.35,2.35,0,0,1,1.274-2.269l1.11-.565Z" transform="translate(-867.441 -1708.28)" fill="#bdc3d0"/>
    </g>
  </g>
  <g id="logo_bitcoin-gray" transform="translate(0 2.289)">
    <path id="Path_37" data-name="Path 37" d="M467.839,1720.228a3.663,3.663,0,0,0,2.037-3.986c-.27-2.809-2.7-3.75-5.758-4.018v-3.9h-2.371v3.794c-.622,0-1.26.011-1.893.025v-3.819h-2.37l0,3.894c-.513.01-1.018.02-1.51.02v-.011l-3.27,0v2.533s1.752-.033,1.721,0a1.222,1.222,0,0,1,1.364,1.038v4.44h0v.017h0v6.219a.837.837,0,0,1-.891.785c.03.027-1.723,0-1.723,0l-.472,2.833h3.087c.574,0,1.14.01,1.693.013l0,3.941h2.369v-3.9c.649.013,1.279.018,1.894.018v3.881h2.37v-3.933c3.987-.228,6.78-1.233,7.126-4.978C471.52,1722.119,470.1,1720.772,467.839,1720.228Zm-7.933-5.3c1.341,0,5.549-.426,5.547,2.368,0,2.679-4.208,2.365-5.547,2.367Zm0,12.346v-5.223c1.609,0,6.651-.458,6.651,2.612C466.557,1727.613,461.515,1727.279,459.906,1727.279Z" transform="translate(-452.7 -1708.326)" fill="#bdc3d0"/>
  </g>
  <g id="logo_binance_coin-gray" transform="translate(191.342 0.896)">
    <g id="Group_2064" data-name="Group 2064">
      <g id="Layer_1-2-3" data-name="Layer 1-2">
        <path id="Path_21" data-name="Path 21" d="M652.758,1718.911l5.536-5.536,5.538,5.539,3.221-3.221-8.759-8.76-8.757,8.757,3.221,3.221m-8.716,2.275,3.221-3.222,3.221,3.221-3.221,3.221Zm8.716,2.274,5.536,5.536,5.538-5.538,3.223,3.219,0,0-8.759,8.759-8.757-8.757,0,0,3.226-3.217m13.345-2.273,3.221-3.221,3.221,3.221-3.221,3.221Z" transform="translate(-644.042 -1706.933)" fill="#bdc3d0"/>
        <path id="Path_22" data-name="Path 22" d="M661.561,1721.184h0l-3.268-3.268-2.416,2.415h0l-.277.277-.573.573,0,0,0,0,3.266,3.266,3.268-3.269h0l0,0" transform="translate(-644.042 -1706.933)" fill="#bdc3d0"/>
      </g>
    </g>
  </g>
</svg>
