<svg xmlns="http://www.w3.org/2000/svg" width="653.417" height="339.591" viewBox="0 0 653.417 339.591">
  <g id="Group_1975" data-name="Group 1975" transform="translate(-360.536 -1857.406)">
    <text id="Fund_Allocation" data-name="Fund 
Allocation" transform="translate(583.509 2000.318)" fill="#fff" font-size="24" font-family="SegoeUI, Segoe UI"><tspan x="87.102" y="26">Fund </tspan><tspan x="60.582" y="54">Allocation</tspan></text>
    <text id="Advisory_Fees" data-name="Advisory Fees" transform="translate(766.715 1865.14)" fill="#bdc3d0" font-size="16" font-family="SegoeUI, Segoe UI"><tspan x="0" y="17">Advisory Fees</tspan></text>
    <text id="_2_" data-name="2% " transform="translate(719.604 1857.406)" fill="#feeca8" font-size="28" font-family="SegoeUI, Segoe UI"><tspan x="0" y="30">2% </tspan></text>
    <text id="Research" transform="translate(863.898 1918.629)" fill="#bdc3d0" font-size="16" font-family="SegoeUI, Segoe UI"><tspan x="0" y="17">Research</tspan></text>
    <text id="_15_" data-name="15% " transform="translate(807.787 1910.896)" fill="#bdc3d0" font-size="28" font-family="SegoeUI, Segoe UI"><tspan x="0" y="30">15% </tspan></text>
    <text id="Development" transform="translate(905.953 2053.498)" fill="#bdc3d0" font-size="16" font-family="SegoeUI, Segoe UI"><tspan x="0" y="17">Development</tspan></text>
    <text id="_30_" data-name="30% " transform="translate(835.842 2045.766)" fill="#f48a5b" font-size="28" font-family="SegoeUI, Segoe UI"><tspan x="0" y="30">30% </tspan></text>
    <text id="Initial_Maintenance_costs_" data-name="Initial Maintenance costs " transform="translate(803.461 2164.856)" fill="#bdc3d0" font-size="16" font-family="SegoeUI, Segoe UI"><tspan x="0" y="17">Initial Maintenance costs </tspan></text>
    <text id="_15_2" data-name="15%" transform="translate(741.157 2155.997)" fill="#6b24d6" font-size="28" font-family="SegoeUI, Segoe UI"><tspan x="0" y="30">15%</tspan></text>
    <text id="Marketing" transform="translate(449.377 2135.479)" fill="#bdc3d0" font-size="16" font-family="SegoeUI, Segoe UI"><tspan x="4.782" y="17">Marketing</tspan></text>
    <text id="_10_" data-name="10%" transform="translate(540.491 2126.071)" fill="#6d51f3" font-size="28" font-family="SegoeUI, Segoe UI"><tspan x="0" y="30">10%</tspan></text>
    <text id="Reserve_Funds_" data-name="Reserve Funds " transform="translate(360.536 1986.58)" fill="#bdc3d0" font-size="16" font-family="SegoeUI, Segoe UI"><tspan x="21.211" y="17">Reserve Funds </tspan></text>
    <text id="_18_" data-name="18%" transform="translate(496.65 1977.172)" fill="#2af6ff" font-size="28" font-family="SegoeUI, Segoe UI"><tspan x="0" y="30">18%</tspan></text>
    <text id="Partnerships_" data-name="Partnerships " transform="translate(468.481 1874.72)" fill="#bdc3d0" font-size="16" font-family="SegoeUI, Segoe UI"><tspan x="19.582" y="17">Partnerships </tspan></text>
    <text id="_10_2" data-name="10%" transform="translate(588.669 1867.313)" fill="#138bbd" font-size="28" font-family="SegoeUI, Segoe UI"><tspan x="0" y="30">10%</tspan></text>
    <g id="Ellipse_182" data-name="Ellipse 182">
      <circle id="Ellipse_194" data-name="Ellipse 194" cx="86.565" cy="86.565" r="86.565" transform="translate(609.147 1945.428)" fill="none"/>
      <circle id="Ellipse_195" data-name="Ellipse 195" cx="87.377" cy="87.377" r="87.377" transform="translate(608.336 1944.617)" fill="none" stroke="#bdc3d0" stroke-linecap="round" stroke-width="1.623" stroke-dasharray="4.328 6.492"/>
    </g>
    <g id="Group_1974" data-name="Group 1974">
      <path id="Path_6849" data-name="Path 6849" d="M804.6,1994.057a116.41,116.41,0,0,1-26.137,117.7" fill="none" stroke="#f48a5b" stroke-linecap="round" stroke-linejoin="round" stroke-width="16"/>
      <path id="Path_6850" data-name="Path 6850" d="M713.265,1916.655a116.4,116.4,0,0,1,91.339,77.4" fill="none" stroke="#bdc3d0" stroke-linecap="round" stroke-linejoin="round" stroke-width="16"/>
      <path id="Path_6851" data-name="Path 6851" d="M697.369,1915.181a116.821,116.821,0,0,1,15.9,1.474" fill="none" stroke="#feeca8" stroke-linecap="round" stroke-linejoin="round" stroke-width="16"/>
      <path id="Path_6852" data-name="Path 6852" d="M618.715,1943.235a115.785,115.785,0,0,1,75.773-28.089q1.445,0,2.881.035" fill="none" stroke="#138bbd" stroke-linecap="round" stroke-linejoin="round" stroke-width="16"/>
      <path id="Path_6853" data-name="Path 6853" d="M592.537,2087.265a116.306,116.306,0,0,1,26.178-144.03" fill="none" stroke="#2af6ff" stroke-linecap="round" stroke-linejoin="round" stroke-width="16"/>
      <path id="Path_6854" data-name="Path 6854" d="M658.521,2141.954a116.575,116.575,0,0,1-65.984-54.689" fill="none" stroke="#6d51f3" stroke-linecap="round" stroke-linejoin="round" stroke-width="16"/>
      <path id="Path_6855" data-name="Path 6855" d="M778.467,2111.755a116.417,116.417,0,0,1-119.946,30.2" fill="none" stroke="#6233ce" stroke-linecap="round" stroke-linejoin="round" stroke-width="16"/>
    </g>
  </g>
</svg>
