<svg xmlns="http://www.w3.org/2000/svg" width="48.382" height="51.249" viewBox="0 0 48.382 51.249">
  <g id="icon_invest-orange" transform="translate(1.103 1)">
    <circle id="Ellipse_47" data-name="Ellipse 47" cx="3.712" cy="3.712" r="3.712" transform="translate(13.709 6.258)" fill="none" stroke="#fff" stroke-linecap="round" stroke-linejoin="round" stroke-width="2"/>
    <circle id="Ellipse_48" data-name="Ellipse 48" cx="3.712" cy="3.712" r="3.712" transform="translate(25.381)" fill="none" stroke="#fff" stroke-linecap="round" stroke-linejoin="round" stroke-width="2"/>
    <circle id="Ellipse_49" data-name="Ellipse 49" cx="4.893" cy="4.893" r="4.893" transform="translate(24.201 13.166)" fill="none" stroke="#fff" stroke-linecap="round" stroke-linejoin="round" stroke-width="2"/>
    <path id="Path_43" data-name="Path 43" d="M581.6,2797.795l2.822-1.97a11.344,11.344,0,0,1,6.489-2.04h12.816a2.983,2.983,0,0,1,2.983,2.982h0a2.984,2.984,0,0,1-2.983,2.983H596.1" transform="translate(-574.187 -2765.523)" fill="none" stroke="#ffb993" stroke-linecap="round" stroke-linejoin="round" stroke-width="2"/>
    <path id="Path_44" data-name="Path 44" d="M606.063,2798.614l9.312-9.265a2.982,2.982,0,0,1,4.218,0h0a2.982,2.982,0,0,1,0,4.218l-11.83,12.14a8.507,8.507,0,0,1-6.091,2.569H587.951l-3.075,3.035" transform="translate(-574.187 -2765.523)" fill="none" stroke="#ffb993" stroke-linecap="round" stroke-linejoin="round" stroke-width="2"/>
    <path id="Path_45" data-name="Path 45" d="M574.187,2796.642l6.528-1.633,4.515,18.053-6.425,1.607" transform="translate(-574.187 -2765.523)" fill="none" stroke="#ffb993" stroke-linecap="round" stroke-linejoin="round" stroke-width="1.819"/>
    <circle id="Ellipse_50" data-name="Ellipse 50" cx="1.315" cy="1.315" r="1.315" transform="translate(4.186 42.41)" fill="#ffb993"/>
  </g>
</svg>
