<svg xmlns="http://www.w3.org/2000/svg" width="23.178" height="23.178" viewBox="0 0 23.178 23.178">
  <g id="icon_support" transform="translate(0.75 0.75)">
    <g id="Group_1663" data-name="Group 1663" transform="translate(-671.726 -373.378)">
      <path id="Path_5926" data-name="Path 5926" d="M682.587,395.052a10.7,10.7,0,0,1-6.276-2c-.166-.11-.558-.232-.686-.106l-2.479.686.686-2.479a1.054,1.054,0,0,0-.106-.686,10.709,10.709,0,0,1-2-6.275,10.839,10.839,0,1,1,10.865,10.864Z" fill="none" stroke="#6233ce" stroke-linecap="round" stroke-linejoin="round" stroke-width="1.5"/>
      <path id="Path_5927" data-name="Path 5927" d="M680.231,382.789a2.335,2.335,0,0,1,2.334-2.334h0a2.33,2.33,0,0,1,2.334,2.324h0v.009c-.012,2.4-2.367,1.72-2.367,3.487" fill="none" stroke="#6233ce" stroke-linecap="round" stroke-miterlimit="10" stroke-width="1.5"/>
      <circle id="Ellipse_186" data-name="Ellipse 186" cx="0.859" cy="0.859" r="0.859" transform="translate(681.707 387.649)" fill="#6233ce"/>
      <circle id="Ellipse_183" data-name="Ellipse 183" cx="7.537" cy="7.537" r="7.537" transform="translate(675.029 376.681)" fill="none" stroke="#6233ce" stroke-linecap="round" stroke-miterlimit="10" stroke-width="1.5"/>
    </g>
  </g>
</svg>
