<svg xmlns="http://www.w3.org/2000/svg" width="49.598" height="52.467" viewBox="0 0 49.598 52.467">
  <g id="icon_invest-purple" transform="translate(1.819 1.5)">
    <circle id="Ellipse_81" data-name="Ellipse 81" cx="3.712" cy="3.712" r="3.712" transform="translate(13.71 6.258)" fill="none" stroke="#6d51f3" stroke-miterlimit="10" stroke-width="3"/>
    <circle id="Ellipse_82" data-name="Ellipse 82" cx="3.712" cy="3.712" r="3.712" transform="translate(25.382)" fill="none" stroke="#6d51f3" stroke-miterlimit="10" stroke-width="3"/>
    <circle id="Ellipse_83" data-name="Ellipse 83" cx="4.893" cy="4.893" r="4.893" transform="translate(24.2 13.167)" fill="none" stroke="#6d51f3" stroke-miterlimit="10" stroke-width="3"/>
    <path id="Path_62" data-name="Path 62" d="M418.984,4596.793l2.822-1.97a11.338,11.338,0,0,1,6.489-2.04h12.816a2.983,2.983,0,0,1,2.983,2.982h0a2.983,2.983,0,0,1-2.983,2.983h-7.623" transform="translate(-411.573 -4564.521)" fill="none" stroke="#6b24d6" stroke-linecap="round" stroke-linejoin="round" stroke-width="3"/>
    <path id="Path_63" data-name="Path 63" d="M443.449,4597.612l9.312-9.265a2.982,2.982,0,0,1,4.218,0h0a2.984,2.984,0,0,1,0,4.218l-11.831,12.14a8.5,8.5,0,0,1-6.09,2.569H425.337l-3.076,3.035" transform="translate(-411.573 -4564.521)" fill="none" stroke="#6b24d6" stroke-linecap="round" stroke-linejoin="round" stroke-width="3"/>
    <path id="Path_64" data-name="Path 64" d="M411.573,4595.641l6.528-1.633,4.515,18.053-6.425,1.607" transform="translate(-411.573 -4564.521)" fill="none" stroke="#6b24d6" stroke-linecap="round" stroke-linejoin="round" stroke-width="3"/>
    <circle id="Ellipse_84" data-name="Ellipse 84" cx="1.315" cy="1.315" r="1.315" transform="translate(4.187 42.411)" fill="#6b24d6"/>
  </g>
</svg>
