<svg xmlns="http://www.w3.org/2000/svg" width="62.177" height="67.055" viewBox="0 0 62.177 67.055">
  <g id="icon_ev-ssl-connection" transform="translate(0.998 1)">
    <g id="Group_75" data-name="Group 75" transform="translate(-960.27 -2499.821)">
      <rect id="Rectangle_45" data-name="Rectangle 45" width="16.231" height="11.562" rx="2.421" transform="translate(982.245 2531.749)" fill="none" stroke="#fff" stroke-linecap="round" stroke-linejoin="round" stroke-width="2"/>
      <path id="Rectangle_46" data-name="Rectangle 46" d="M4.064,0h1A4.064,4.064,0,0,1,9.129,4.064V8.128a0,0,0,0,1,0,0H0a0,0,0,0,1,0,0V4.064A4.064,4.064,0,0,1,4.064,0Z" transform="translate(985.796 2523.62)" fill="none" stroke="#fff" stroke-linecap="round" stroke-linejoin="round" stroke-width="2"/>
    </g>
    <path id="Path_38" data-name="Path 38" d="M1020.423,2512.736c-13.444.042-22.816-4.182-30.029-12.787v-.128l-.042.053-.029-.053v.1c-7.212,8.628-16.575,12.852-30.024,12.81-.7,34.613,11.555,48.361,30.024,52.14h.09C1008.845,2561.1,1021.1,2547.349,1020.423,2512.736Z" transform="translate(-960.27 -2499.821)" fill="none" stroke="#f6bb99" stroke-linecap="round" stroke-linejoin="round" stroke-width="2"/>
  </g>
</svg>
