<svg xmlns="http://www.w3.org/2000/svg" width="55.914" height="40.726" viewBox="0 0 55.914 40.726">
  <g id="icon_users-purple" transform="translate(1.5 1.5)">
    <path id="Path_65" data-name="Path 65" d="M1110.634,4588.741a18.863,18.863,0,0,1,.8-5.424,5.017,5.017,0,1,0-.726,6.886C1110.67,4589.719,1110.634,4589.234,1110.634,4588.741Z" transform="translate(-1095.445 -4569.878)" fill="none" stroke="#6d51f3" stroke-miterlimit="10" stroke-width="3"/>
    <circle id="Ellipse_123" data-name="Ellipse 123" cx="18.863" cy="18.863" r="18.863" transform="translate(15.188)" fill="none" stroke="#6b24d6" stroke-linecap="round" stroke-linejoin="round" stroke-width="3"/>
    <circle id="Ellipse_122" data-name="Ellipse 122" cx="7.846" cy="7.846" r="7.846" transform="translate(26.205 7.329)" fill="none" stroke="#6d51f3" stroke-miterlimit="10" stroke-width="3"/>
    <path id="Path_5611" data-name="Path 5611" d="M1141.549,4603.034a17.511,17.511,0,0,0-24.117,0" transform="translate(-1095.445 -4569.878)" fill="none" stroke="#6b24d6" stroke-linecap="round" stroke-linejoin="round" stroke-width="3"/>
    <path id="Path_66" data-name="Path 66" d="M1110.634,4588.741a18.758,18.758,0,0,1,3.078-10.311,12.052,12.052,0,1,0,0,20.621A18.754,18.754,0,0,1,1110.634,4588.741Z" transform="translate(-1095.445 -4569.878)" fill="none" stroke="#6b24d6" stroke-linecap="round" stroke-linejoin="round" stroke-width="3"/>
    <path id="Path_67" data-name="Path 67" d="M1112,4595.755a11.18,11.18,0,0,0-12.208,2.119" transform="translate(-1095.445 -4569.878)" fill="none" stroke="#6b24d6" stroke-linecap="round" stroke-linejoin="round" stroke-width="3"/>
  </g>
</svg>
