<svg xmlns="http://www.w3.org/2000/svg" width="59.187" height="65.977" viewBox="0 0 59.187 65.977">
  <g id="icon_2fa-authentification" transform="translate(1.004 1)">
    <g id="Group_77" data-name="Group 77" transform="translate(-1172.875 -2500.79)">
      <rect id="Rectangle_47" data-name="Rectangle 47" width="16.231" height="11.562" rx="2.421" transform="translate(1194.195 2524.241)" fill="none" stroke="#fff" stroke-linecap="round" stroke-linejoin="round" stroke-width="2"/>
      <path id="Rectangle_48" data-name="Rectangle 48" d="M4.064,0h1A4.064,4.064,0,0,1,9.129,4.064V8.128a0,0,0,0,1,0,0H0a0,0,0,0,1,0,0V4.064A4.064,4.064,0,0,1,4.064,0Z" transform="translate(1197.746 2516.113)" fill="none" stroke="#fff" stroke-linecap="round" stroke-linejoin="round" stroke-width="2"/>
    </g>
    <path id="Path_39" data-name="Path 39" d="M1182.984,2516.891v-11.467a4.635,4.635,0,0,1,4.635-4.634h28.966a4.635,4.635,0,0,1,4.635,4.634v4.333" transform="translate(-1172.875 -2500.79)" fill="none" stroke="#f6bb99" stroke-linecap="round" stroke-linejoin="round" stroke-width="2"/>
    <path id="Path_40" data-name="Path 40" d="M1221.22,2549.279v1.645a4.634,4.634,0,0,1-4.635,4.634h-21.613" transform="translate(-1172.875 -2500.79)" fill="none" stroke="#f6bb99" stroke-linecap="round" stroke-linejoin="round" stroke-width="2"/>
    <rect id="Rectangle_49" data-name="Rectangle 49" width="8.263" height="10.977" rx="4.131" transform="translate(50.893 6.64) rotate(45)" fill="none" stroke="#f6bb99" stroke-linecap="round" stroke-linejoin="round" stroke-width="2"/>
    <rect id="Rectangle_50" data-name="Rectangle 50" width="8.263" height="10.977" rx="4.131" transform="translate(50.471 16.54) rotate(45)" fill="none" stroke="#f6bb99" stroke-linecap="round" stroke-linejoin="round" stroke-width="2"/>
    <rect id="Rectangle_51" data-name="Rectangle 51" width="8.263" height="10.977" rx="4.131" transform="translate(50.471 26.401) rotate(45)" fill="none" stroke="#f6bb99" stroke-linecap="round" stroke-linejoin="round" stroke-width="2"/>
    <rect id="Rectangle_52" data-name="Rectangle 52" width="8.263" height="10.977" rx="4.131" transform="matrix(0.707, 0.707, -0.707, 0.707, 50.926, 36.271)" fill="none" stroke="#f6bb99" stroke-linecap="round" stroke-linejoin="round" stroke-width="2"/>
    <line id="Line_28" data-name="Line 28" x2="7.442" transform="translate(25.42 47.222)" fill="none" stroke="#f6bb99" stroke-linecap="round" stroke-linejoin="round" stroke-width="2"/>
    <path id="Path_41" data-name="Path 41" d="M1173.508,2553.8l.373-2.568a11.316,11.316,0,0,0-.068-3.677l-.752-4.106a11.329,11.329,0,0,1,.253-5.17l4.953-17.274a4.375,4.375,0,0,1,5.411-3h0a4.375,4.375,0,0,1,3,5.411l-3.031,10.572a17.921,17.921,0,0,1,5.1,11.709" transform="translate(-1172.875 -2500.79)" fill="none" stroke="#f6bb99" stroke-linecap="round" stroke-linejoin="round" stroke-width="2"/>
    <path id="Path_42" data-name="Path 42" d="M1209.928,2555.558c-2.052,5-5.413,8.306-10.744,9.076" transform="translate(-1172.875 -2500.79)" fill="none" stroke="#f6bb99" stroke-linecap="round" stroke-linejoin="round" stroke-width="2"/>
  </g>
</svg>
