<svg id="logo_tglabs-inverse" xmlns="http://www.w3.org/2000/svg" width="135" height="35.182" viewBox="0 0 135 35.182">
  <g id="Group_1626" data-name="Group 1626">
    <path id="Path_1471" data-name="Path 1471" d="M438.339,2309.885a11.51,11.51,0,1,0,21.264,0C451.874,2309.88,445.029,2306.644,438.339,2309.885Z" transform="translate(-436.775 -2291.309)" fill="#6d51f3"/>
    <ellipse id="Ellipse_164" data-name="Ellipse 164" cx="1.651" cy="1.651" rx="1.651" ry="1.651" transform="translate(8.577 1.389)" fill="#2af6ff"/>
    <ellipse id="Ellipse_165" data-name="Ellipse 165" cx="0.908" cy="0.908" rx="0.908" ry="0.908" transform="translate(12.997)" fill="#2af6ff"/>
    <path id="Path_1472" data-name="Path 1472" d="M447.173,2294.546a12.35,12.35,0,0,1-3.795-24.1v-4.431a.755.755,0,0,1,.755-.755h6.08a.755.755,0,0,1,.755.755v4.431a12.35,12.35,0,0,1-3.795,24.1Zm-2.285-27.778v4.239a.755.755,0,0,1-.557.729,10.84,10.84,0,1,0,5.685,0,.755.755,0,0,1-.557-.729v-4.239Z" transform="translate(-434.824 -2259.364)" fill="#6758ea"/>
    <path id="Path_1474" data-name="Path 1474" d="M483.835,2258.312a1.935,1.935,0,0,0-1.934,1.934h3.869A1.934,1.934,0,0,0,483.835,2258.312Z" transform="translate(-469.648 -2254.225)" fill="#2af6ff"/>
    <g id="Group_1625" data-name="Group 1625" transform="translate(5.481 16.429)">
      <path id="Rectangle_104" data-name="Rectangle 104" d="M3.29,0h0A3.29,3.29,0,0,1,6.58,3.29V6.58a0,0,0,0,1,0,0H0a0,0,0,0,1,0,0V3.29A3.29,3.29,0,0,1,3.29,0Z" transform="translate(3.29)" fill="#138bbd"/>
      <path id="Path_1475" data-name="Path 1475" d="M475.511,2342.4l-1.61,1.61a.36.36,0,0,0,.254.614h3.22a.36.36,0,0,0,.254-.614l-1.61-1.61A.36.36,0,0,0,475.511,2342.4Z" transform="translate(-469.132 -2332.781)" fill="#feeca8"/>
      <path id="Path_1476" data-name="Path 1476" d="M465.751,2318.371h-6.58a3.29,3.29,0,0,0-3.29,3.29h0a3.29,3.29,0,0,0,3.29,3.29h0a3.287,3.287,0,0,0,2.908-1.753.423.423,0,0,1,.764,0,3.289,3.289,0,0,0,6.2-1.537h0A3.29,3.29,0,0,0,465.751,2318.371Z" transform="translate(-455.882 -2315.081)" fill="#2af6ff"/>
      <g id="Group_1624" data-name="Group 1624" transform="translate(1.571 4.785)">
        <g id="Group_1622" data-name="Group 1622" transform="translate(7.729)">
          <ellipse id="Ellipse_166" data-name="Ellipse 166" cx="0.552" cy="0.552" rx="0.552" ry="0.552" fill="#2e1c89"/>
          <ellipse id="Ellipse_167" data-name="Ellipse 167" cx="0.552" cy="0.552" rx="0.552" ry="0.552" transform="translate(0 2.325)" fill="#2e1c89"/>
        </g>
        <g id="Group_1623" data-name="Group 1623" transform="translate(6.566 1.162)">
          <ellipse id="Ellipse_168" data-name="Ellipse 168" cx="0.552" cy="0.552" rx="0.552" ry="0.552" fill="#2e1c89"/>
          <ellipse id="Ellipse_169" data-name="Ellipse 169" cx="0.552" cy="0.552" rx="0.552" ry="0.552" transform="translate(2.325)" fill="#2e1c89"/>
        </g>
        <rect id="Rectangle_105" data-name="Rectangle 105" width="3.429" height="1.105" rx="0.552" transform="translate(0 1.162)" fill="#2e1c89"/>
        <rect id="Rectangle_106" data-name="Rectangle 106" width="3.429" height="1.105" rx="0.552" transform="translate(1.162 3.429) rotate(-90)" fill="#2e1c89"/>
      </g>
    </g>
    <path id="Path_1473" data-name="Path 1473" d="M471.743,2266.769h-9.1a.755.755,0,1,1,0-1.51h9.1a.755.755,0,1,1,0,1.51Z" transform="translate(-454.844 -2259.364)" fill="#6d51f3"/>
  </g>
  <g id="Group_2052" data-name="Group 2052" transform="translate(28.538 11.091)">
    <g id="Group_2051" data-name="Group 2051">
      <path id="Path_6862" data-name="Path 6862" d="M780.272,2744.426H768.52a1.555,1.555,0,0,0-1.553,1.553v7.071a1.555,1.555,0,0,0,1.553,1.553h11.752a5.088,5.088,0,0,0,0-10.177Zm0,7.834H769.31v-5.491h10.962a2.746,2.746,0,1,1,0,5.491Z" transform="translate(-699.687 -2744.258)" fill="#fff"/>
      <path id="Path_6863" data-name="Path 6863" d="M780.272,2787.881H768.52a1.555,1.555,0,0,0-1.553,1.553v7.071a1.555,1.555,0,0,0,1.553,1.553h11.752a5.088,5.088,0,0,0,0-10.177Zm0,7.834H769.31v-5.491h10.962a2.746,2.746,0,1,1,0,5.491Z" transform="translate(-699.687 -2776.403)" fill="#fff"/>
      <path id="Path_6864" data-name="Path 6864" d="M699.533,2758.433a1.171,1.171,0,0,0-2.158.911l1.784,4.227h-14.9V2745.6a1.171,1.171,0,0,0-2.343,0v19.145a1.171,1.171,0,0,0,1.171,1.171h17.833a1.171,1.171,0,0,0,1.079-1.626Z" transform="translate(-636.776 -2744.258)" fill="#fff"/>
      <path id="Path_6865" data-name="Path 6865" d="M696.849,2761.319a1.17,1.17,0,0,0,.472-.1l10.384-4.573a1.171,1.171,0,0,0,.607-1.527l-4.21-9.978a1.171,1.171,0,0,0-1.078-.716h0a1.172,1.172,0,0,0-1.078.714l-6.174,14.551a1.171,1.171,0,0,0,1.079,1.629Zm6.17-12.716,2.686,6.364-6.624,2.917Z" transform="translate(-646.952 -2744.258)" fill="#fff"/>
      <path id="Path_6866" data-name="Path 6866" d="M526.043,2746.769a1.171,1.171,0,1,0,0-2.343h-16.4a1.171,1.171,0,1,0,0,2.343h7.122v17.9a1.171,1.171,0,0,0,2.343,0v-17.9Z" transform="translate(-508.474 -2744.258)" fill="#fff"/>
      <path id="Path_6867" data-name="Path 6867" d="M589.374,2755.737h-5.4a1.171,1.171,0,1,0,0,2.343h4.23v2.585a2.241,2.241,0,0,1-1.17,1.983,8.44,8.44,0,1,1,1.57-13.791,1.171,1.171,0,0,0,1.543-1.763,10.78,10.78,0,1,0-2,17.617,4.579,4.579,0,0,0,2.4-4.047v-3.756A1.171,1.171,0,0,0,589.374,2755.737Z" transform="translate(-555.663 -2744.259)" fill="#fff"/>
      <path id="Path_6868" data-name="Path 6868" d="M862.624,2755.7c-1.346-.941-4.177-1.689-7.176-2.482-1.812-.479-3.685-.975-5.021-1.472-.031-.011-.062-.016-.093-.024a1.166,1.166,0,0,0-.231-.131c-1.337-.556-1.376-2.475-1.376-2.693a2.777,2.777,0,0,1,2.774-2.774h8.277a2.777,2.777,0,0,1,2.774,2.774,1.171,1.171,0,1,0,2.343,0,5.123,5.123,0,0,0-5.117-5.116H851.5a5.294,5.294,0,0,0-2.3,9.973,1.2,1.2,0,0,0,.141.043,1.167,1.167,0,0,0,.264.145c1.443.538,3.373,1.048,5.24,1.541,2.544.673,5.428,1.435,6.433,2.138a3.394,3.394,0,0,1,1.271,2.624,2.777,2.777,0,0,1-2.774,2.774H851.5a2.777,2.777,0,0,1-2.774-2.774,1.171,1.171,0,1,0-2.343,0,5.122,5.122,0,0,0,5.117,5.116h8.277a5.123,5.123,0,0,0,5.117-5.117A5.734,5.734,0,0,0,862.624,2755.7Z" transform="translate(-758.434 -2743.782)" fill="#fff"/>
    </g>
  </g>
</svg>
