<svg id="logo_beio-inverse" xmlns="http://www.w3.org/2000/svg" xmlns:xlink="http://www.w3.org/1999/xlink" width="84.536" height="22.811" viewBox="0 0 84.536 22.811">
  <defs>
    <linearGradient id="linear-gradient" y1="0.5" x2="1" y2="0.5" gradientUnits="objectBoundingBox">
      <stop offset="0" stop-color="#dc4096"/>
      <stop offset="1" stop-color="#844594"/>
    </linearGradient>
    <linearGradient id="linear-gradient-2" x1="1.004" y1="0.502" x2="0.004" y2="0.498" gradientUnits="objectBoundingBox">
      <stop offset="0" stop-color="#2ba3c5"/>
      <stop offset="1" stop-color="#52bfa6"/>
    </linearGradient>
  </defs>
  <g id="Group_1560" data-name="Group 1560" transform="translate(-1315.43 -6649.352)" opacity="0.801">
    <path id="Path_1419" data-name="Path 1419" d="M1377.976,6662.683h.7v.066a.645.645,0,0,0,.33.538,2.205,2.205,0,0,0,1.831.044.525.525,0,0,0,.3-.456v-.055a.429.429,0,0,0-.081-.263.557.557,0,0,0-.248-.178,1.98,1.98,0,0,0-.378-.108,4.888,4.888,0,0,0-.516-.063,4.457,4.457,0,0,1-.681-.1,2.545,2.545,0,0,1-.578-.207,1.07,1.07,0,0,1-.416-.356.891.891,0,0,1-.148-.511v-.152a1.04,1.04,0,0,1,.463-.879,2.263,2.263,0,0,1,1.335-.333,2.13,2.13,0,0,1,1.363.382,1.167,1.167,0,0,1,.478.945v.122h-.685v-.071a.662.662,0,0,0-.267-.544,1.448,1.448,0,0,0-.889-.212,1.566,1.566,0,0,0-.823.171.512.512,0,0,0-.271.448v.056a.415.415,0,0,0,.089.267.645.645,0,0,0,.267.181,1.975,1.975,0,0,0,.386.111c.137.026.307.049.511.067q.206.017.378.045c.115.018.237.04.363.07a2.928,2.928,0,0,1,.341.1,1.479,1.479,0,0,1,.289.145,1,1,0,0,1,.23.192.894.894,0,0,1,.2.571v.174a1.046,1.046,0,0,1-.5.882,2.349,2.349,0,0,1-1.378.349,2.494,2.494,0,0,1-1.445-.375,1.121,1.121,0,0,1-.542-.952Z" fill="#fff"/>
    <path id="Path_1420" data-name="Path 1420" d="M1381.9,6659.766h.593l.074-1.063h.622v1.063h1.616v.608h-1.616v2.238a.818.818,0,0,0,.263.667,1.271,1.271,0,0,0,.819.215,3.069,3.069,0,0,0,.719-.07v.6a2.923,2.923,0,0,1-.741.093,2.033,2.033,0,0,1-1.312-.367,1.325,1.325,0,0,1-.448-1.093v-2.283h-.586Z" fill="#fff"/>
    <path id="Path_1421" data-name="Path 1421" d="M1385.25,6659.77h.708v2.664a.961.961,0,0,0,.3.767,1.586,1.586,0,0,0,1.756,0,.955.955,0,0,0,.312-.767v-2.665h.7v2.757a1.4,1.4,0,0,1-.512,1.145,2.477,2.477,0,0,1-2.757,0,1.4,1.4,0,0,1-.511-1.145Z" fill="#fff"/>
    <path id="Path_1422" data-name="Path 1422" d="M1389.8,6661.211a1.414,1.414,0,0,1,.445-1.126,1.938,1.938,0,0,1,1.308-.389,2.569,2.569,0,0,1,.782.122,2.184,2.184,0,0,1,.656.326v-1.812h.708v4.2a1.4,1.4,0,0,1-.515,1.149,2.213,2.213,0,0,1-1.423.415,2.241,2.241,0,0,1-1.435-.419,1.4,1.4,0,0,1-.522-1.153Zm.7,1.227a.93.93,0,0,0,.323.767,1.455,1.455,0,0,0,.934.263,1.393,1.393,0,0,0,.915-.263.947.947,0,0,0,.311-.767v-1.579a2.214,2.214,0,0,0-1.364-.518,1.242,1.242,0,0,0-.852.237.935.935,0,0,0-.263.726v1.13Z" fill="#fff"/>
    <path id="Path_1423" data-name="Path 1423" d="M1394.428,6658.792c0-.308.148-.464.441-.464a.494.494,0,0,1,.345.112.449.449,0,0,1,.122.348c0,.293-.155.441-.47.441a.391.391,0,0,1-.441-.441Zm.115.978h.7v4.25h-.7Z" fill="#fff"/>
    <path id="Path_1424" data-name="Path 1424" d="M1396.027,6661.267a1.4,1.4,0,0,1,.53-1.152,2.677,2.677,0,0,1,2.883,0,1.387,1.387,0,0,1,.526,1.152v1.26a1.388,1.388,0,0,1-.522,1.149,2.244,2.244,0,0,1-1.438.415,2.272,2.272,0,0,1-1.445-.419,1.38,1.38,0,0,1-.53-1.145Zm.7,1.167a.924.924,0,0,0,.33.767,1.48,1.48,0,0,0,.941.264,1.447,1.447,0,0,0,.931-.264.928.928,0,0,0,.322-.767v-1.078a.929.929,0,0,0-.322-.767,1.453,1.453,0,0,0-.931-.263,1.471,1.471,0,0,0-.937.263.921.921,0,0,0-.326.767v1.078Z" fill="#fff"/>
  </g>
  <g id="Group_1561" data-name="Group 1561" transform="translate(-1315.43 -6649.352)">
    <circle id="Ellipse_143" data-name="Ellipse 143" cx="11.406" cy="11.406" r="11.406" transform="translate(1315.43 6649.352)" fill="url(#linear-gradient)"/>
    <circle id="Ellipse_144" data-name="Ellipse 144" cx="5.703" cy="5.703" r="5.703" transform="translate(1321.22 6655.265)" stroke="#707070" stroke-miterlimit="10" stroke-width="0.281" fill="url(#linear-gradient-2)"/>
    <path id="Path_1425" data-name="Path 1425" d="M1326.923,6654.916a6.025,6.025,0,0,0-3.784,1.333v-.281a1.041,1.041,0,0,0-1.04-1.041h-.217a1.041,1.041,0,0,0-1.041,1.041v4.938a1.037,1.037,0,0,0,.041.273,6.048,6.048,0,1,0,6.041-6.263Zm0,9.815a3.763,3.763,0,1,1,3.763-3.763A3.763,3.763,0,0,1,1326.923,6664.731Z" fill="#fff"/>
    <path id="Path_1426" data-name="Path 1426" d="M1323.362,6650.836a1.412,1.412,0,0,1-2.773.38,11.432,11.432,0,0,0-.934.682,2.526,2.526,0,1,0,4.53-2.233,11.487,11.487,0,0,0-1.111.324A1.407,1.407,0,0,1,1323.362,6650.836Z" fill="#fff"/>
  </g>
  <g id="Group_1562" data-name="Group 1562" transform="translate(-1315.43 -6649.352)">
    <path id="Path_1427" data-name="Path 1427" d="M1342.663,6654.685h2.038v3.92a5.8,5.8,0,0,1,1.393-.66,5.083,5.083,0,0,1,1.6-.253,4.184,4.184,0,0,1,2.877.848,3.229,3.229,0,0,1,.929,2.518v2.8a3.118,3.118,0,0,1-1.173,2.567,6.068,6.068,0,0,1-6.479,0,3.118,3.118,0,0,1-1.173-2.567Zm2.054,9a1.758,1.758,0,0,0,.6,1.443,2.728,2.728,0,0,0,1.76.489,2.773,2.773,0,0,0,1.785-.489,1.757,1.757,0,0,0,.6-1.443v-2.436a1.633,1.633,0,0,0-.489-1.312,2.5,2.5,0,0,0-1.622-.416,4.324,4.324,0,0,0-1.467.253,4,4,0,0,0-1.189.635v3.26Z" fill="#fff"/>
    <path id="Path_1428" data-name="Path 1428" d="M1352.509,6661.254a3.11,3.11,0,0,1,1.2-2.584,6.146,6.146,0,0,1,6.536-.008,3.1,3.1,0,0,1,1.2,2.575v1.948h-6.91v.62c0,1.222.815,1.833,2.437,1.833a3.267,3.267,0,0,0,1.809-.407,1.2,1.2,0,0,0,.595-1.019v-.13h2v.269a2.318,2.318,0,0,1-.293,1.124,3.1,3.1,0,0,1-.84.962,4.269,4.269,0,0,1-1.393.684,6.37,6.37,0,0,1-1.858.253,5.166,5.166,0,0,1-3.268-.945,3.091,3.091,0,0,1-1.2-2.567Zm6.894.53v-.432q0-1.871-2.42-1.867c-1.638,0-2.453.62-2.453,1.867v.432Z" fill="#fff"/>
    <path id="Path_1429" data-name="Path 1429" d="M1363.479,6654.685q1.271,0,1.271,1.15,0,1.1-1.271,1.1-1.2,0-1.2-1.1Q1362.281,6654.686,1363.479,6654.685Zm-.97,3.171h2.038v9.347h-2.038Z" fill="#fff"/>
    <path id="Path_1430" data-name="Path 1430" d="M1365.664,6661.213a3.089,3.089,0,0,1,1.2-2.567,6.145,6.145,0,0,1,6.536-.008,3.087,3.087,0,0,1,1.2,2.567v2.665a3.088,3.088,0,0,1-1.2,2.567,6.145,6.145,0,0,1-6.536-.008,3.093,3.093,0,0,1-1.2-2.567Zm2.022,2.469a1.718,1.718,0,0,0,.627,1.435,3.577,3.577,0,0,0,3.61,0,1.719,1.719,0,0,0,.628-1.435v-2.273a1.713,1.713,0,0,0-.62-1.435,2.844,2.844,0,0,0-1.793-.489,2.883,2.883,0,0,0-1.809.489,1.72,1.72,0,0,0-.627,1.435v2.273Z" fill="#fff"/>
  </g>
</svg>
