<svg id="logo_tether-color" xmlns="http://www.w3.org/2000/svg" width="21.844" height="19.002" viewBox="0 0 21.844 19.002">
  <path id="Path_7010" data-name="Path 7010" d="M4,.093.022,8.459a.162.162,0,0,0,.035.189L10.814,18.956a.164.164,0,0,0,.227,0L21.8,8.649a.162.162,0,0,0,.035-.189L17.85.094A.161.161,0,0,0,17.7,0H4.153A.161.161,0,0,0,4,.093Z" transform="translate(-0.006)" fill="#50af95" fill-rule="evenodd"/>
  <path id="Path_7011" data-name="Path 7011" d="M72.288,46.96h0c-.077.006-.476.03-1.366.03-.708,0-1.211-.021-1.387-.03h0c-2.736-.12-4.778-.6-4.778-1.167s2.042-1.046,4.778-1.168v1.861c.179.013.691.043,1.4.043.849,0,1.275-.035,1.351-.042v-1.86c2.73.122,4.767.6,4.767,1.167s-2.037,1.045-4.767,1.166h0Zm0-2.526V42.769H76.1V40.23H65.725v2.539h3.809v1.664c-3.1.142-5.425.756-5.425,1.49s2.328,1.348,5.425,1.49v5.335h2.753V47.412c3.089-.142,5.414-.755,5.414-1.489s-2.323-1.347-5.414-1.49h0Zm0,0Z" transform="translate(-59.985 -37.642)" fill="#fff" fill-rule="evenodd"/>
</svg>
