<svg xmlns="http://www.w3.org/2000/svg" width="274.077" height="429.833" viewBox="0 0 274.077 429.833">
  <g id="Group_2439" data-name="Group 2439" transform="translate(-785.182 -3287.682)">
    <text id="Platform_Maintenance" data-name="Platform 
Maintenance" transform="translate(785.182 3287.682)" fill="#bdc3d0" font-size="16" font-family="SegoeUI, Segoe UI"><tspan x="0" y="17">Platform </tspan><tspan x="0" y="35">Maintenance</tspan></text>
    <text id="_20_" data-name="20% " transform="translate(785.182 3328.637)" fill="#ffb993" font-size="28" font-family="SegoeUI, Segoe UI"><tspan x="0" y="30">20% </tspan></text>
    <text id="Token_Holders" data-name="Token Holders" transform="translate(851.293 3561.826)" fill="#bdc3d0" font-size="16" font-family="SegoeUI, Segoe UI"><tspan x="0" y="17">Token Holders</tspan></text>
    <text id="_80_" data-name="80% " transform="translate(785.182 3554.094)" fill="#6d51f3" font-size="28" font-family="SegoeUI, Segoe UI"><tspan x="0" y="30">80% </tspan></text>
    <text id="TGLAB_Holders" data-name="TGLAB Holders" transform="translate(844.682 3693.027)" fill="#bdc3d0" font-size="13" font-family="SegoeUI, Segoe UI"><tspan x="0" y="14">TGLAB Holders</tspan></text>
    <text id="_80_2" data-name="80% " transform="translate(785.182 3685.516)" fill="#138bbd" font-size="24" font-family="SegoeUI, Segoe UI"><tspan x="0" y="26">80% </tspan></text>
    <text id="TRUE_token_div_pool_on_the_True_Gaming_live_platform_" data-name="TRUE token div pool 
(on the True Gaming live platform)" transform="translate(844.682 3639.06)" fill="#bdc3d0" font-size="13" font-family="SegoeUI, Segoe UI"><tspan x="0" y="14">TRUE token div pool </tspan><tspan x="0" y="28">(on the True Gaming live platform)</tspan></text>
    <text id="_20_2" data-name="20% " transform="translate(785.182 3638.428)" fill="#2af6ff" font-size="24" font-family="SegoeUI, Segoe UI"><tspan x="0" y="26">20% </tspan></text>
    <circle id="Ellipse_59" data-name="Ellipse 59" cx="70.136" cy="70.136" r="70.136" transform="translate(887.812 3362.699)" fill="none" stroke="#6d51f3" stroke-miterlimit="10" stroke-width="9.58"/>
    <path id="Path_55" data-name="Path 55" d="M891.515,3410.288a70.165,70.165,0,0,1,66.433-47.589" fill="none" stroke="#ffb993" stroke-linecap="round" stroke-linejoin="round" stroke-width="9.58"/>
    <line id="Line_43" data-name="Line 43" x2="140.552" y2="37.229" transform="translate(817.396 3395.606)" fill="none" stroke="#fff" stroke-linecap="round" stroke-linejoin="round" stroke-width="2"/>
    <path id="Path_56" data-name="Path 56" d="M957.948,3432.835l-94.094-24.885a97.318,97.318,0,1,0,177.47-25.313Z" fill="none" stroke="#138bbd" stroke-linecap="round" stroke-linejoin="round" stroke-width="8"/>
    <line id="Line_44" data-name="Line 44" y2="97.846" transform="translate(957.948 3334.989)" fill="none" stroke="#fff" stroke-linecap="round" stroke-linejoin="round" stroke-width="2"/>
    <line id="Line_45" data-name="Line 45" y2="122.64" transform="translate(957.948 3310.195)" fill="none" stroke="#fff" stroke-linecap="round" stroke-linejoin="round" stroke-width="2"/>
    <circle id="Ellipse_60" data-name="Ellipse 60" cx="70.136" cy="70.136" r="70.136" transform="translate(887.812 3362.699)" fill="none" stroke="#6d51f3" stroke-miterlimit="10" stroke-width="9.58"/>
    <path id="Path_57" data-name="Path 57" d="M891.515,3410.288a70.165,70.165,0,0,1,66.433-47.589" fill="none" stroke="#ffb993" stroke-linecap="round" stroke-linejoin="round" stroke-width="9.58"/>
    <path id="Path_58" data-name="Path 58" d="M957.948,3432.835l83.362-50.224a97.258,97.258,0,0,0-83.362-47.086Z" fill="none" stroke="#2af6ff" stroke-linecap="round" stroke-linejoin="round" stroke-width="8"/>
    <text id="is_split_as_follows:" data-name="is split as follows:" transform="translate(785.182 3617.288)" fill="#fff" font-size="13" font-family="SegoeUI, Segoe UI"><tspan x="0" y="0">is split as follows:</tspan></text>
    <g id="logo_symbol_tglab-inverse" transform="translate(926.941 3403.195)">
      <path id="Rectangle_5" data-name="Rectangle 5" d="M15.489,0h0A15.489,15.489,0,0,1,30.978,15.489V31.382a0,0,0,0,1,0,0H0a0,0,0,0,1,0,0V15.489A15.489,15.489,0,0,1,15.489,0Z" transform="translate(15.489)" fill="#138bbd"/>
      <path id="Path_4" data-name="Path 4" d="M427.4-220.285l-7.579,7.678a1.718,1.718,0,0,0,1.2,2.928h15.159a1.718,1.718,0,0,0,1.2-2.928l-7.579-7.678A1.677,1.677,0,0,0,427.4-220.285Z" transform="translate(-397.37 266.183)" fill="#feeca8"/>
      <path id="Path_5" data-name="Path 5" d="M387.778-324.989H356.8A15.591,15.591,0,0,0,341.311-309.3h0A15.591,15.591,0,0,0,356.8-293.607h0a15.458,15.458,0,0,0,13.692-8.361,1.992,1.992,0,0,1,1.8-1.147,1.992,1.992,0,0,1,1.8,1.147,15.458,15.458,0,0,0,13.692,8.361A15.591,15.591,0,0,0,403.266-309.3h0A15.591,15.591,0,0,0,387.778-324.989Z" transform="translate(-341.311 340.68)" fill="#2af6ff"/>
      <g id="Group_4" data-name="Group 4" transform="translate(7.397 22.823)">
        <g id="Group_2" data-name="Group 2" transform="translate(36.387 0)">
          <ellipse id="Ellipse_1" data-name="Ellipse 1" cx="2.6" cy="2.634" rx="2.6" ry="2.634" fill="#2e1c89"/>
          <ellipse id="Ellipse_2" data-name="Ellipse 2" cx="2.6" cy="2.634" rx="2.6" ry="2.634" transform="translate(0 11.087)" fill="#2e1c89"/>
        </g>
        <g id="Group_3" data-name="Group 3" transform="translate(30.915 5.544)">
          <ellipse id="Ellipse_3" data-name="Ellipse 3" cx="2.6" cy="2.634" rx="2.6" ry="2.634" fill="#2e1c89"/>
          <ellipse id="Ellipse_4" data-name="Ellipse 4" cx="2.6" cy="2.634" rx="2.6" ry="2.634" transform="translate(10.945)" fill="#2e1c89"/>
        </g>
        <rect id="Rectangle_6" data-name="Rectangle 6" width="16.145" height="5.268" rx="2.634" transform="translate(0 5.544)" fill="#2e1c89"/>
        <rect id="Rectangle_7" data-name="Rectangle 7" width="16.356" height="5.2" rx="2.6" transform="translate(5.472 16.356) rotate(-90)" fill="#2e1c89"/>
      </g>
    </g>
  </g>
</svg>
