<svg xmlns="http://www.w3.org/2000/svg" width="336.551" height="353.766" viewBox="0 0 336.551 353.766">
  <g id="Group_2644" data-name="Group 2644" transform="translate(-394.649 -3093.809)">
    <path id="Path_7075" data-name="Path 7075" d="M518.114,3287.5a99.892,99.892,0,0,1,90.733-58.082q3.939,0,7.8.3l1.013-35.279c-2.915-.188-5.853-.294-8.815-.294a135.161,135.161,0,0,0-122.657,78.345Z" transform="translate(-34.954 -39.031)" fill="#8e78f7" opacity="0.2"/>
    <path id="Path_7076" data-name="Path 7076" d="M708.229,3230.4c1.974.249,3.927.563,5.863.925l4.445-35.038q-3.706-.635-7.479-1.064Z" transform="translate(-122.282 -39.454)" fill="#f48a5b" opacity="0.2"/>
    <path id="Path_7077" data-name="Path 7077" d="M623.093,3197.205l-4.443,35.022A99.847,99.847,0,1,1,510.016,3288.7L478.092,3273.7a135.163,135.163,0,1,0,145-76.49Z" transform="translate(-26.856 -40.233)" fill="rgba(245,75,0,0.5)" stroke="#f54b00" stroke-linecap="round" stroke-width="4"/>
    <path id="Path_7078" data-name="Path 7078" d="M700.773,3229.567c1.517.123,3.026.275,4.523.465l2.829-35.177q-3.122-.356-6.287-.57Z" transform="translate(-119.349 -39.084)" fill="#feeca8" opacity="0.2"/>
    <circle id="Ellipse_310" data-name="Ellipse 310" cx="156.496" cy="156.496" r="156.496" transform="translate(417.397 3133.772)" fill="none" stroke="#cecece" stroke-linecap="round" stroke-width="1.623" stroke-dasharray="4.328 6.492" opacity="0.6"/>
    <line id="Line_383" data-name="Line 383" x1="2.362" y2="97.07" transform="translate(581.034 3094.908)" fill="none" stroke="#fff" stroke-linecap="round" stroke-linejoin="round" stroke-width="2.146" opacity="0.8"/>
    <line id="Line_384" data-name="Line 384" x1="5.317" y2="66.389" transform="translate(585.935 3124.895)" fill="none" stroke="#fff" stroke-linecap="round" stroke-linejoin="round" stroke-width="2.146" opacity="0.8"/>
    <line id="Line_385" data-name="Line 385" x1="8.383" y2="66.278" transform="translate(591.759 3126.13)" fill="none" stroke="#f54b00" stroke-linecap="round" stroke-width="4"/>
    <circle id="Ellipse_311" data-name="Ellipse 311" cx="99.705" cy="99.705" r="99.705" transform="translate(474.188 3190.563)" fill="none" stroke="#feeca8" stroke-linecap="round" stroke-linejoin="round" stroke-width="4"/>
    <text id="Token_Distribution_Pricing" data-name="Token
Distribution
& Pricing" transform="translate(508.82 3246.493)" fill="#fff" font-size="24" font-family="SegoeUI, Segoe UI"><tspan x="37.749" y="26">Token</tspan><tspan x="6.73" y="54">Distribution</tspan><tspan x="19.931" y="82">& Pricing</tspan></text>
    <line id="Line_386" data-name="Line 386" x2="92.131" y2="43.876" transform="translate(397.315 3207.385)" fill="none" stroke="#f54b00" stroke-linecap="round" stroke-width="4"/>
    <path id="Path_7079" data-name="Path 7079" d="M710.835,3254.1q2.806.383,5.56.921" transform="translate(-123.307 -62.608)" fill="none" stroke="#f48a5b" stroke-linecap="round" stroke-linejoin="round" stroke-width="6"/>
    <path id="Path_7080" data-name="Path 7080" d="M723.8,3256.4a99.815,99.815,0,0,1,76.679,79.932" transform="translate(-128.407 -63.516)" fill="none" stroke="#f46a2d" stroke-linecap="round" stroke-width="10"/>
    <path id="Path_7081" data-name="Path 7081" d="M819.769,3388.152a99.877,99.877,0,0,1-46.93,102.988" transform="translate(-147.693 -115.332)" fill="none" stroke="#0acdd6" stroke-linecap="round" stroke-width="12"/>
    <path id="Path_7082" data-name="Path 7082" d="M697.5,3551.486a99.756,99.756,0,0,1-116.213-9.9" transform="translate(-72.357 -175.678)" fill="none" stroke="#005b81" stroke-linecap="round" stroke-width="16"/>
    <path id="Path_7083" data-name="Path 7083" d="M558.767,3468.927a99.822,99.822,0,0,1-27.876-112.085" transform="translate(-49.833 -103.018)" fill="none" stroke="#8e78f7" stroke-linecap="round" stroke-width="20"/>
    <path id="Path_7084" data-name="Path 7084" d="M535.344,3315.926a99.76,99.76,0,0,1,87.434-63.118" transform="translate(-54.287 -62.102)" fill="none" stroke="#6d51f3" stroke-linecap="round" stroke-width="26"/>
  </g>
</svg>
