<svg xmlns="http://www.w3.org/2000/svg" width="977.919" height="634.684" viewBox="0 0 977.919 634.684">
  <g id="Group_1973" data-name="Group 1973" transform="translate(-206.519 -733.047)">
    <g id="Layer_4" data-name="Layer 4">
      <text id="Token_Distribution_Pricing" data-name="Token
Distribution
& Pricing" transform="translate(593.987 1013.666)" fill="#fff" font-size="24" font-family="SegoeUI, Segoe UI"><tspan x="82.432" y="26">Token</tspan><tspan x="51.412" y="54">Distribution</tspan><tspan x="64.613" y="82">& Pricing</tspan></text>
      <text id="Private_Offering" data-name="Private Offering" transform="translate(910.992 791.704)" fill="#bdc3d0" font-size="16" font-family="SegoeUI, Segoe UI"><tspan x="0" y="17">Private Offering</tspan></text>
      <text id="_10_1.00_USD" data-name="10% @ $1.00 USD" transform="translate(791.041 748.314)" fill="#fff" font-size="20" font-family="SegoeUI, Segoe UI"><tspan x="0" y="22">10% @ $1.00 USD</tspan></text>
      <text id="_10_1.40_USD" data-name="10% @ $1.40 USD" transform="translate(924.033 833.954)" fill="#fff" font-size="20" font-family="SegoeUI, Segoe UI"><tspan x="0" y="22">10% @ $1.40 USD</tspan></text>
      <text id="_16_" data-name="16% " transform="translate(853.881 783.972)" fill="#feeca8" font-size="28" font-family="SegoeUI, Segoe UI"><tspan x="0" y="30">16% </tspan></text>
      <text id="Stage_1_public_ICO_" data-name="Stage 1 public ICO " transform="translate(1046.438 1016.987)" fill="#bdc3d0" font-size="16" font-family="SegoeUI, Segoe UI"><tspan x="0" y="17">Stage 1 public ICO </tspan></text>
      <text id="_1.80_USD" data-name="@ $1.80 USD" transform="translate(1024.382 1049.857)" fill="#fff" font-size="20" font-family="SegoeUI, Segoe UI"><tspan x="0" y="22">@ $1.80 USD</tspan></text>
      <text id="_16_2" data-name="16% " transform="translate(989.327 1009.258)" fill="#f48a5b" font-size="28" font-family="SegoeUI, Segoe UI"><tspan x="0" y="30">16% </tspan></text>
      <text id="Stage_2_public_ICO_" data-name="Stage 2 public ICO " transform="translate(951.457 1256.271)" fill="#bdc3d0" font-size="16" font-family="SegoeUI, Segoe UI"><tspan x="0" y="17">Stage 2 public ICO </tspan></text>
      <text id="_2.50_USD" data-name="@ $2.50 USD" transform="translate(929.4 1288.471)" fill="#fff" font-size="20" font-family="SegoeUI, Segoe UI"><tspan x="0" y="22">@ $2.50 USD</tspan></text>
      <text id="_16_3" data-name="16% " transform="translate(894.346 1248.541)" fill="#6b24d6" font-size="28" font-family="SegoeUI, Segoe UI"><tspan x="0" y="30">16% </tspan></text>
      <text id="Stage_3_public_ICO_" data-name="Stage 3 public ICO " transform="translate(390.592 1302.516)" fill="#bdc3d0" font-size="16" font-family="SegoeUI, Segoe UI"><tspan x="0" y="17">Stage 3 public ICO </tspan></text>
      <text id="_3.45_USD" data-name="@ $3.45 USD" transform="translate(419.536 1334.731)" fill="#fff" font-size="20" font-family="SegoeUI, Segoe UI"><tspan x="0" y="22">@ $3.45 USD</tspan></text>
      <text id="_16_4" data-name="16% " transform="translate(530.849 1293.2)" fill="#6d51f3" font-size="28" font-family="SegoeUI, Segoe UI"><tspan x="0" y="30">16% </tspan></text>
      <text id="Stage_4_public_ICO_" data-name="Stage 4 public ICO " transform="translate(206.519 1074.808)" fill="#bdc3d0" font-size="16" font-family="SegoeUI, Segoe UI"><tspan x="0" y="17">Stage 4 public ICO </tspan></text>
      <text id="_5.00_USD" data-name="@ $5.00 USD" transform="translate(235.463 1107.029)" fill="#fff" font-size="20" font-family="SegoeUI, Segoe UI"><tspan x="0" y="22">@ $5.00 USD</tspan></text>
      <text id="_16_5" data-name="16% " transform="translate(346.777 1065.493)" fill="#2af6ff" font-size="28" font-family="SegoeUI, Segoe UI"><tspan x="0" y="30">16% </tspan></text>
      <text id="Held_by_TG_Labs_Team" data-name="Held by TG Labs Team" transform="translate(298.024 776.244)" fill="#bdc3d0" font-size="16" font-family="SegoeUI, Segoe UI"><tspan x="0" y="17">Held by TG Labs Team</tspan></text>
      <text id="_20_" data-name="20% " transform="translate(470.282 767.938)" fill="#138bbd" font-size="28" font-family="SegoeUI, Segoe UI"><tspan x="0" y="30">20% </tspan></text>
      <line id="Line_151" data-name="Line 151" y1="76.657" x2="137.826" transform="translate(842.877 898.222)" fill="none" stroke="#fff" stroke-linecap="round" stroke-linejoin="round" stroke-width="2" opacity="0.3"/>
      <circle id="Ellipse_192" data-name="Ellipse 192" cx="159.523" cy="159.523" r="159.523" transform="translate(544.851 893.194)" fill="none" stroke="#fff" stroke-linecap="round" stroke-linejoin="round" stroke-width="2"/>
      <line id="Line_152" data-name="Line 152" x2="151.933" y2="65.793" transform="translate(408.549 919.537)" fill="none" stroke="#fff" stroke-linecap="round" stroke-linejoin="round" stroke-width="2" opacity="0.3"/>
    </g>
    <g id="Layer_5" data-name="Layer 5">
      <path id="Path_6841" data-name="Path 6841" d="M842.525,975.072l54.956-30.125A226.933,226.933,0,0,0,712.84,829.586l-1.5,62.682A164.289,164.289,0,0,1,842.525,975.072Z" fill="#fff" stroke="#fff" stroke-linecap="round" stroke-linejoin="round" stroke-width="2.146" opacity="0.05"/>
      <line id="Line_153" data-name="Line 153" x1="3.893" y2="159.996" transform="translate(711.365 734.146)" fill="none" stroke="#fff" stroke-linecap="round" stroke-linejoin="round" stroke-width="2.146" opacity="0.3"/>
      <path id="Path_6842" data-name="Path 6842" d="M897.481,944.947l-54.6,29.932a164.7,164.7,0,1,1-291.167,8.7l-57.475-24.135a226.057,226.057,0,0,0-21.59,96.7c0,125.341,101.609,226.95,226.95,226.95s226.949-101.609,226.949-226.95A225.925,225.925,0,0,0,897.481,944.947Z" fill="#fff" stroke="#fff" stroke-linecap="round" stroke-linejoin="round" stroke-width="2.146" opacity="0.15"/>
      <path id="Path_6843" data-name="Path 6843" d="M705.317,894.029a160.364,160.364,0,0,1,136.662,76.324" fill="none" stroke="#feeca8" stroke-linecap="round" stroke-linejoin="round" stroke-width="16"/>
      <path id="Path_6844" data-name="Path 6844" d="M557.1,992.887a160.512,160.512,0,0,1,148.213-98.858" fill="none" stroke="#138bbd" stroke-linecap="round" stroke-linejoin="round" stroke-width="26"/>
      <path id="Path_6845" data-name="Path 6845" d="M841.979,970.353a160.69,160.69,0,0,1,6.16,157.366" fill="none" stroke="#f48a5b" stroke-linecap="round" stroke-linejoin="round" stroke-width="26"/>
      <path id="Path_6846" data-name="Path 6846" d="M848.139,1127.719a160.51,160.51,0,0,1-131.477,86.846" fill="none" stroke="#6233ce" stroke-linecap="round" stroke-linejoin="round" stroke-width="36"/>
      <path id="Path_6847" data-name="Path 6847" d="M716.662,1214.565q-5.622.393-11.345.4a160.29,160.29,0,0,1-132.1-69.347" fill="none" stroke="#6d51f3" stroke-linecap="round" stroke-linejoin="round" stroke-width="46"/>
      <path id="Path_6848" data-name="Path 6848" d="M573.213,1145.613A160.727,160.727,0,0,1,557.1,992.887" fill="none" stroke="#2af6ff" stroke-linecap="round" stroke-linejoin="round" stroke-width="56"/>
      <circle id="Ellipse_193" data-name="Ellipse 193" cx="257.945" cy="257.945" r="257.945" transform="translate(441.65 798.204)" fill="none" stroke="#bdc3d0" stroke-linecap="round" stroke-width="1.623" stroke-dasharray="4.328 6.492"/>
    </g>
  </g>
</svg>
