<svg xmlns="http://www.w3.org/2000/svg" width="21.307" height="21.307" viewBox="0 0 21.307 21.307">
  <g id="Group_1575" data-name="Group 1575" transform="translate(-161.619 -6539.541)">
    <g id="Group_1574" data-name="Group 1574" transform="translate(491.516 -163.92)">
      <path id="Path_5505" data-name="Path 5505" d="M-308.656,6709.721a7.81,7.81,0,0,0-.5-2.586,5.215,5.215,0,0,0-1.229-1.886,5.215,5.215,0,0,0-1.886-1.229,7.83,7.83,0,0,0-2.586-.492c-1.1-.053-1.472-.067-4.128-.067h-.528c-2.652,0-3.027.014-4.124.067a7.817,7.817,0,0,0-2.589.492,5.228,5.228,0,0,0-1.886,1.229,5.231,5.231,0,0,0-1.23,1.886,7.831,7.831,0,0,0-.492,2.586c-.053,1.137-.067,1.5-.067,4.391s.012,3.256.067,4.391a7.837,7.837,0,0,0,.492,2.588,5.234,5.234,0,0,0,1.229,1.886,5.208,5.208,0,0,0,1.886,1.228,7.829,7.829,0,0,0,2.586.5c1.136.052,1.5.067,4.391.067s3.255-.012,4.39-.067a7.829,7.829,0,0,0,2.586-.5,5.455,5.455,0,0,0,3.118-3.114,7.8,7.8,0,0,0,.5-2.586c.05-1.1.062-1.475.066-4.125v-.527C-308.594,6711.2-308.608,6710.822-308.656,6709.721Zm-1.918,8.7a5.881,5.881,0,0,1-.367,1.977,3.533,3.533,0,0,1-2.021,2.022,5.9,5.9,0,0,1-1.978.367c-1.123.052-1.46.062-4.3.062s-3.182-.01-4.305-.062a5.9,5.9,0,0,1-1.978-.367,3.3,3.3,0,0,1-1.224-.8,3.29,3.29,0,0,1-.8-1.225,5.882,5.882,0,0,1-.367-1.978c-.05-1.123-.062-1.459-.062-4.3s.012-3.181.062-4.3a5.907,5.907,0,0,1,.369-1.977,3.3,3.3,0,0,1,.8-1.225,3.3,3.3,0,0,1,1.225-.8,5.919,5.919,0,0,1,1.978-.368c1.123-.05,1.463-.061,4.3-.061s3.181.011,4.3.061a5.9,5.9,0,0,1,1.978.368,3.291,3.291,0,0,1,1.225.8,3.3,3.3,0,0,1,.8,1.225,5.929,5.929,0,0,1,.367,1.977c.051,1.123.062,1.464.062,4.3S-310.522,6717.295-310.574,6718.418Z" fill="#fff"/>
      <path id="Path_5506" data-name="Path 5506" d="M-319.244,6709.21a4.9,4.9,0,0,0-4.9,4.9,4.9,4.9,0,0,0,4.9,4.9,4.9,4.9,0,0,0,4.9-4.9,4.9,4.9,0,0,0-4.9-4.9Zm0,8.087a3.183,3.183,0,0,1-3.183-3.183,3.184,3.184,0,0,1,3.184-3.183,3.182,3.182,0,0,1,3.182,3.183,3.183,3.183,0,0,1-3.183,3.183Z" fill="#fff"/>
      <path id="Path_5507" data-name="Path 5507" d="M-314.147,6707.87a1.145,1.145,0,0,0-1.145,1.147,1.146,1.146,0,0,0,1.147,1.144,1.146,1.146,0,0,0,1.144-1.146,1.144,1.144,0,0,0-1.146-1.145Z" fill="#fff"/>
    </g>
  </g>
</svg>
