<svg xmlns="http://www.w3.org/2000/svg" width="20" height="20" viewBox="0 0 20 20">
  <path id="Combined-Shape" d="M-248.25,6724.8v-13.586h3.9V6724.8Zm14.548-13.717c2.77,0,4.947,1.954,4.947,6.162v7.555h-4.42v-7.031c0-1.84-.692-3.1-2.212-3.1a2.266,2.266,0,0,0-2.111,1.664,3.42,3.42,0,0,0-.1,1.111v7.352h-4.379s.056-12.455,0-13.587h4.379v2.132A3.96,3.96,0,0,1-233.7,6711.082Zm-12.672-6.283a2.262,2.262,0,0,1,2.351,2.355,2.269,2.269,0,0,1-2.378,2.359h-.028a2.255,2.255,0,0,1-2.326-2.355A2.273,2.273,0,0,1-246.374,6704.8Z" transform="translate(248.755 -6704.799)" fill="#fff" fill-rule="evenodd"/>
</svg>
