<svg id="logo_telegram" xmlns="http://www.w3.org/2000/svg" width="18.823" height="18.818" viewBox="0 0 18.823 18.818">
  <path id="Subtraction_6" data-name="Subtraction 6" d="M9.41,18.818A9.409,9.409,0,0,1,2.756,2.756a9.41,9.41,0,0,1,13.308,0A9.409,9.409,0,0,1,9.41,18.818Zm1.782-11.13c.053,0,.089.019.1.055.048.114-.109.38-.278.549-.706.709-1.879,1.828-2.854,2.722a.615.615,0,0,0-.252.454.582.582,0,0,0,.226.417c.541.458,1.8,1.284,2.412,1.681l.012.009c.2.131.3.2.324.214a2.541,2.541,0,0,0,1.21.5.632.632,0,0,0,.148-.015c.418-.1.5-.627.515-.733l.681-4.272c.064-.427.129-.855.187-1.232l.014-.086c.137-.883.244-1.577.261-1.835a.627.627,0,0,0-.114-.487.479.479,0,0,0-.37-.136A1.279,1.279,0,0,0,13,5.576c-.014.005-2.115.869-2.748,1.142L3.916,9.33c-.414.162-.633.338-.649.523s.187.317.188.318.96.332,1.767.571a2.26,2.26,0,0,0,.652.1,1.213,1.213,0,0,0,.6-.13L10.311,8.13A2.2,2.2,0,0,1,11.192,7.688Z" fill="#8f96a5"/>
</svg>
