<svg xmlns="http://www.w3.org/2000/svg" width="21" height="18" viewBox="0 0 21 18">
  <path id="Fill-1" d="M-269.822,6706.132a8.36,8.36,0,0,1-2.738,1.1,4.2,4.2,0,0,0-3.144-1.434,4.431,4.431,0,0,0-4.307,4.544,4.762,4.762,0,0,0,.111,1.035,12.031,12.031,0,0,1-8.881-4.75,4.722,4.722,0,0,0-.584,2.288,4.611,4.611,0,0,0,1.917,3.781,4.128,4.128,0,0,1-1.952-.567v.057a4.491,4.491,0,0,0,3.457,4.455,3.982,3.982,0,0,1-1.134.16,4.043,4.043,0,0,1-.812-.081,4.348,4.348,0,0,0,4.024,3.155,8.36,8.36,0,0,1-5.35,1.946,8.3,8.3,0,0,1-1.028-.063,11.756,11.756,0,0,0,6.6,2.04c7.926,0,12.259-6.923,12.259-12.928,0-.2,0-.4-.011-.589a9.013,9.013,0,0,0,2.148-2.352,8.243,8.243,0,0,1-2.474.715,4.524,4.524,0,0,0,1.9-2.513" transform="translate(290.243 -6705.799)" fill="#fff" fill-rule="evenodd"/>
</svg>
