<svg id="icon_shushiswap-gray" xmlns="http://www.w3.org/2000/svg" width="32.753" height="30.003" viewBox="0 0 32.753 30.003">
  <path id="Path_7110" data-name="Path 7110" d="M729.976-97.322c-3.285-2.19-6.569-2.874-7.527-1.506s.958,4.243,4.106,6.432c3.284,2.19,6.568,2.874,7.526,1.505S733.123-95.133,729.976-97.322Z" transform="translate(-708.859 105.347)" fill="#bdc3d0"/>
  <path id="Path_7111" data-name="Path 7111" d="M732.165-100.607c-6.979-4.926-14.369-6.158-16.558-3.01l-6.295,9.168.048.034c-1.956,3.326,1.982,9.489,8.847,14.335,6.91,4.878,14.214,6.127,16.484,3.1l.074.052,6.295-9.306C743.113-89.385,739.281-95.954,732.165-100.607Zm-17.1,1.369c-.137.137-.274,0-.274-.137a3.481,3.481,0,0,0-.274-.958c0-.137.137-.137.274-.274s.274,0,.274.137a2.688,2.688,0,0,1,.136.958C715.333-99.375,715.2-99.238,715.06-99.238ZM724.5-88.291c-.137,0-.274.137-.411,0a24.5,24.5,0,0,1-8.758-9.852c0-.137,0-.137.137-.274s.274,0,.274.137A23.8,23.8,0,0,0,724.5-88.7C724.5-88.564,724.639-88.427,724.5-88.291Zm9.032,4.243c-.411-.137-.958-.274-1.369-.411-.137,0-.137-.137-.137-.274s.137-.136.274-.136c.411.136.958.273,1.368.41.137,0,.137.137.137.274S733.67-84.048,733.534-84.048Zm4.515.41a13.471,13.471,0,0,1-3.284-.137.294.294,0,0,1-.273-.273.294.294,0,0,1,.273-.274,13.207,13.207,0,0,0,3.284.137.3.3,0,0,1,.274.273A.3.3,0,0,1,738.049-83.638Zm2.053-3.147c-1.916,2.737-8.621,1.368-15.053-3.148-6.568-4.516-10.4-10.263-8.484-13s8.621-1.368,15.053,3.147S741.881-89.522,740.1-86.785Z" transform="translate(-708.859 105.347)" fill="#bdc3d0"/>
</svg>
