<svg id="icon_pancakeswap-gray" xmlns="http://www.w3.org/2000/svg" width="31.7" height="32.012" viewBox="0 0 31.7 32.012">
  <g id="Group_2653" data-name="Group 2653" transform="translate(-591.003 -414.173)">
    <path id="Path_7109" data-name="Path 7109" d="M615.8,425.278l1.1-6.1a4.322,4.322,0,0,0-4.2-5,4.226,4.226,0,0,0-4.2,4.2v5.2a9.765,9.765,0,0,0-1.7-.1c-.6,0-1.2.1-1.8.1v-5.2a4.19,4.19,0,1,0-8.3.8l1.1,6.1c-3.9,1.7-6.8,4.7-6.8,8.4v2.3c0,3.1,2,5.7,4.8,7.4a23.007,23.007,0,0,0,22,0c2.9-1.7,4.9-4.3,4.9-7.4v-2.3C622.7,429.978,619.7,426.978,615.8,425.278Zm5.5,8.6c0,4.9-6.5,8.9-14.5,8.9s-14.5-4-14.5-8.9c0-.033.005-.066.005-.1H592.3c0-3.2,2.8-6,7-7.6l-1.3-7.2a2.883,2.883,0,1,1,5.7-.6v6.5c.4,0,.9-.1,1.3-.1a10.938,10.938,0,0,1,1.8-.1c.6,0,1.1.1,1.7.1a5.78,5.78,0,0,1,1.3.1v-6.6a2.9,2.9,0,0,1,2.9-2.9,3.048,3.048,0,0,1,.539.051,2.955,2.955,0,0,1,2.361,3.449l-1.3,7.2c4.3,1.6,7.1,4.4,7,7.7H621.3C621.3,433.812,621.3,433.845,621.3,433.878Z" fill="#bdc3d0"/>
    <path id="Path_7103" data-name="Path 7103" d="M602.753,433.078c0,1.3-.7,2.4-1.6,2.4s-1.6-1.1-1.6-2.4.7-2.4,1.6-2.4S602.753,431.778,602.753,433.078Z" fill="#bdc3d0"/>
    <path id="Path_7104" data-name="Path 7104" d="M613.853,433.078c0,1.3-.7,2.4-1.6,2.4s-1.6-1.1-1.6-2.4.7-2.4,1.6-2.4S613.853,431.778,613.853,433.078Z" fill="#bdc3d0"/>
  </g>
</svg>
