<svg id="logo_tron-gray" xmlns="http://www.w3.org/2000/svg" width="27.663" height="29.106" viewBox="0 0 27.663 29.106">
  <path id="Path_26" data-name="Path 26" d="M1007.19,1715.4c-1.365-1.26-3.252-3.183-4.789-4.548l-.091-.063a1.716,1.716,0,0,0-.505-.282h0c-3.706-.692-20.956-3.916-21.293-3.875a.625.625,0,0,0-.263.1l-.087.068a1.018,1.018,0,0,0-.236.382l-.023.059v.373c1.942,5.408,9.609,23.121,11.119,27.278.091.282.264.819.587.846h.073c.172,0,.909-.973.909-.973s13.171-15.972,14.5-17.673a4.3,4.3,0,0,0,.455-.673A1.1,1.1,0,0,0,1007.19,1715.4Zm-11.22,1.86,5.621-4.661,3.3,3.038Zm-2.183-.3-9.677-7.931,15.658,2.888Zm.873,2.079,9.906-1.6-11.324,13.644Zm-11.865-9.219,10.183,8.641-1.474,12.634Z" transform="translate(-979.903 -1706.633)" fill="#bdc3d0"/>
</svg>
