<svg id="Group_2654" data-name="Group 2654" xmlns="http://www.w3.org/2000/svg" width="33.284" height="38.335" viewBox="0 0 33.284 38.335">
  <path id="Path_7112" data-name="Path 7112" d="M582.971-99.357c-.416-.059-.435-.079-.238-.1a6.545,6.545,0,0,1,1.858.158,7.989,7.989,0,0,1,4.073,2.729l.355.415.514-.079a11.015,11.015,0,0,1,6.327.791,8.12,8.12,0,0,1,1.423.831,1.89,1.89,0,0,1,.139.553,3.361,3.361,0,0,1-.218,2.156.577.577,0,0,0-.059.632.593.593,0,0,0,.533.336c.475,0,.97-.751,1.207-1.8l.1-.415.179.2a7.784,7.784,0,0,1,1.918,3.8l.039.3-.178-.258a3.338,3.338,0,0,0-.949-1.008c-.672-.455-1.383-.592-3.262-.692a13.358,13.358,0,0,1-3.618-.554c-1.621-.533-2.452-1.226-4.37-3.776a18.1,18.1,0,0,0-1.918-2.254A6.7,6.7,0,0,0,582.971-99.357Z" transform="translate(-569.921 108.076)" fill="#bdc3d0"/>
  <path id="Path_7113" data-name="Path 7113" d="M595.553-96.949a4.252,4.252,0,0,1,.355-1.7,1.345,1.345,0,0,1,.178-.336.735.735,0,0,1-.079.3,3.785,3.785,0,0,0-.08,1.74c.139.89.2,1.008,1.147,1.977.434.455.949,1.028,1.146,1.266l.336.434-.336-.316a12.041,12.041,0,0,0-1.581-1.247c-.138-.079-.158-.079-.258.021-.079.079-.1.2-.1.771a4.246,4.246,0,0,1-.435,2.016c-.158.3-.178.238-.04-.1a2.88,2.88,0,0,0,.119-1.226c0-1.721-.2-2.135-1.4-2.827-.3-.179-.81-.435-1.106-.574a4.391,4.391,0,0,1-.534-.256,8.759,8.759,0,0,1,1.661.495c.692.277.81.3.89.277C595.494-96.3,595.532-96.454,595.553-96.949Z" transform="translate(-567.773 108.179)" fill="#bdc3d0"/>
  <path id="Path_7114" data-name="Path 7114" d="M583.8-94.058a6.983,6.983,0,0,1-1.245-4.25l.039-.416.2.04a4.662,4.662,0,0,1,1.266.474c.791.475,1.146,1.127,1.482,2.748.1.475.237,1.029.3,1.207a7.207,7.207,0,0,0,.791,1.423c.218.317.08.475-.415.435A4.054,4.054,0,0,1,583.8-94.058Z" transform="translate(-569.937 108.233)" fill="#bdc3d0"/>
  <path id="Path_7115" data-name="Path 7115" d="M595.173-86.737c-3.915-1.581-5.3-2.945-5.3-5.258,0-.336.021-.613.021-.613a3.8,3.8,0,0,1,.336.256c.791.634,1.681.91,4.152,1.266a17.3,17.3,0,0,1,3.024.632,5.777,5.777,0,0,1,4.232,4.607,8.057,8.057,0,0,1-.119,2.471,4.947,4.947,0,0,1-.634,1.423c-.019,0-.059-.1-.059-.256a3.215,3.215,0,0,0-1.146-2.234A15.808,15.808,0,0,0,595.173-86.737Z" transform="translate(-568.402 109.512)" fill="#bdc3d0"/>
  <path id="Path_7116" data-name="Path 7116" d="M593.42-87.017a4.632,4.632,0,0,0-.2-.831l-.1-.3.178.218a3.483,3.483,0,0,1,.634,1.146,2.479,2.479,0,0,1,.138,1.108,2.528,2.528,0,0,1-.138,1.068,3.585,3.585,0,0,1-.831,1.324,4.765,4.765,0,0,1-2.966,1.306c-.237.019-.909.079-1.5.118a11.57,11.57,0,0,0-3.361.554c-.118.039-.237.079-.256.059a4.473,4.473,0,0,1,1.068-.634,10.759,10.759,0,0,1,2.966-.791,13.677,13.677,0,0,0,1.759-.355A3.417,3.417,0,0,0,593.42-87.017Z" transform="translate(-569.418 110.446)" fill="#bdc3d0"/>
  <path id="Path_7117" data-name="Path 7117" d="M593.542-83.991a4.615,4.615,0,0,1-.356-3.2c.04-.1.08-.2.118-.2a.837.837,0,0,1,.277.139c.237.157.732.434,2,1.127a10.1,10.1,0,0,1,3.144,2.313,4.9,4.9,0,0,1,1.047,2.392,7.812,7.812,0,0,1-.1,2.353,5.826,5.826,0,0,1-2.867,3.8,2.7,2.7,0,0,1-.415.2,1.6,1.6,0,0,1,.178-.435,3.916,3.916,0,0,0,.178-3.064,12.573,12.573,0,0,0-1.581-2.847A18.86,18.86,0,0,1,593.542-83.991Z" transform="translate(-567.74 110.603)" fill="#bdc3d0"/>
  <path id="Path_7118" data-name="Path 7118" d="M581.345-79.154a10.744,10.744,0,0,1,4.923-2.372,7.33,7.33,0,0,1,2.55.1,4.4,4.4,0,0,1,2.492,1.6,5.918,5.918,0,0,1,.909,2.689c.078.534.178,1.087.2,1.207a2.654,2.654,0,0,0,.871,1.561,3.008,3.008,0,0,0,2.728.08,1.376,1.376,0,0,1,.336-.1,3,3,0,0,1-.85.573,2.794,2.794,0,0,1-1.423.336,2.856,2.856,0,0,1-2.412-1.482,11.432,11.432,0,0,1-.653-1.3c-.692-1.6-1.047-2.076-1.858-2.61a2.436,2.436,0,0,0-2.313-.218,1.489,1.489,0,0,0-.514,2.313,2.018,2.018,0,0,0,1.127.594,1.205,1.205,0,0,0,1.364-1.205.947.947,0,0,0-.652-.97c-.634-.277-1.325.04-1.306.653a.545.545,0,0,0,.376.533c.158.08.158.08.04.059a.732.732,0,0,1-.258-1.284,1.423,1.423,0,0,1,2.116.455,2.074,2.074,0,0,1,.04,1.344,1.85,1.85,0,0,1-2.254,1.068A3.233,3.233,0,0,1,585.2-76.7a5.258,5.258,0,0,0-3.894-2l-.376-.059Z" transform="translate(-570.272 111.815)" fill="#bdc3d0"/>
  <path id="Path_7119" data-name="Path 7119" d="M572.788-105.739c4.607,5.6,11.705,14.295,12.061,14.769.3.4.178.771-.317,1.048a3.042,3.042,0,0,1-1.127.316,1.432,1.432,0,0,1-.949-.415c-.178-.178-.949-1.3-2.689-4.014-1.324-2.076-2.451-3.8-2.471-3.815-.079-.04-.079-.04,2.334,4.27a34.694,34.694,0,0,1,2.017,3.8c0,.258-.08.4-.4.751a4.4,4.4,0,0,0-.949,2.67c-.2,1.562-.731,2.668-2.254,4.547a8.146,8.146,0,0,0-1.245,1.759,3.336,3.336,0,0,0-.4,1.581,4.939,4.939,0,0,0,.256,1.938,6.649,6.649,0,0,0,.949,1.858,4.6,4.6,0,0,1,.732,1.444c0,.157.04.157.751,0a7.811,7.811,0,0,0,3.875-1.9,1.787,1.787,0,0,0,.594-1.5,1.616,1.616,0,0,0-.138-.831,3.566,3.566,0,0,0-1.384-1.344,3.123,3.123,0,0,1-1.641-2.115,3.719,3.719,0,0,1,.613-2.373,7.086,7.086,0,0,0,.869-3.123c.059-.831.158-1.167.4-1.423a1.479,1.479,0,0,1,1.087-.456,3.626,3.626,0,0,0,2.175-.889,1.859,1.859,0,0,0,.672-1.444l.021-.455-.258-.277c-.93-1.068-13.8-15.224-13.86-15.224C572.1-106.589,572.414-106.213,572.788-105.739Zm6.07,28.114a.816.816,0,0,0-.256-1.087c-.336-.218-.85-.118-.85.178a.2.2,0,0,0,.157.2c.179.1.2.2.059.415s-.138.416.04.554A.565.565,0,0,0,578.858-77.625Z" transform="translate(-572.115 106.589)" fill="#bdc3d0" fill-rule="evenodd"/>
  <path id="Path_7120" data-name="Path 7120" d="M584.507-91.227a1.754,1.754,0,0,0-1.068,1.167,1.693,1.693,0,0,0,.1,1.068c.216.277.415.355.969.355,1.087,0,2.017-.474,2.115-1.047a1.529,1.529,0,0,0-.889-1.424A2.026,2.026,0,0,0,584.507-91.227Zm1.265.989a.445.445,0,0,0-.2-.672c-.534-.336-1.344-.059-1.344.455,0,.258.415.534.81.534A1.09,1.09,0,0,0,585.771-90.238Z" transform="translate(-569.756 109.791)" fill="#bdc3d0" fill-rule="evenodd"/>
</svg>
