<svg id="logo_bittorrent-gray" xmlns="http://www.w3.org/2000/svg" width="30.506" height="25.812" viewBox="0 0 30.506 25.812">
  <g id="Layer_1-2" data-name="Layer 1-2">
    <path id="Path_35" data-name="Path 35" d="M893.642,1711.658l-3.674,1.872-17.737,9.034a10.565,10.565,0,0,1,15.628-10.591l2.1-1.071.313-.16a12.906,12.906,0,0,0-20.487,10.446q0,.493.037.983a2.347,2.347,0,0,1-1.275,2.269l-1.109.565v2.637l3.264-1.664h0l1.057-.539,1.042-.531h0l18.7-9.527,2.1-1.07,4.343-2.214v-2.635Z" transform="translate(-867.441 -1708.28)" fill="#bdc3d0"/>
    <path id="Path_36" data-name="Path 36" d="M897.947,1714.735,873.866,1727l-2.1,1.073-4.324,2.2v2.634l4.294-2.187,3.674-1.872,17.755-9.047a10.735,10.735,0,0,1,.09,1.388,10.566,10.566,0,0,1-15.734,9.21l-.129.069-2.279,1.161a12.907,12.907,0,0,0,20.489-10.44c0-.331-.013-.663-.038-.991a2.35,2.35,0,0,1,1.274-2.269l1.11-.565Z" transform="translate(-867.441 -1708.28)" fill="#bdc3d0"/>
  </g>
</svg>
