<svg id="logo_ethereum-gray" xmlns="http://www.w3.org/2000/svg" width="17.599" height="28.505" viewBox="0 0 17.599 28.505">
  <g id="Group_2065" data-name="Group 2065" transform="translate(-0.001 0.001)">
    <path id="Path_23" data-name="Path 23" d="M1034.292,1722.457c3.1,1.647,6.336,3.37,8.835,4.7l8.763-4.7c-3.173,4.714-5.816,8.638-8.763,12.981C1040.176,1731.1,1036.916,1726.323,1034.292,1722.457Z" transform="translate(-1034.291 -1706.934)" fill="#bdc3d0"/>
    <path id="Path_24" data-name="Path 24" d="M1034.629,1721.157l8.508-4.54,8.4,4.507-8.392,4.545Z" transform="translate(-1034.291 -1706.934)" fill="#bdc3d0"/>
    <path id="Path_25" data-name="Path 25" d="M1043.127,1715.162l-8.835,4.651,8.8-12.88,8.8,12.909Z" transform="translate(-1034.291 -1706.934)" fill="#bdc3d0"/>
    <path id="path1593" d="M1043.127,1727.161l8.763-4.7c-3.173,4.714-8.763,12.981-8.763,12.981Zm.01-10.544,8.4,4.506-8.392,4.545Zm-.01-1.455-.038-8.229,8.8,12.909Z" transform="translate(-1034.291 -1706.934)" fill="#acb3c1"/>
    <path id="path1603" d="M1034.629,1721.157l8.508.7,8.4-.727-8.393,4.545Z" transform="translate(-1034.291 -1706.934)" fill="#8f96a5"/>
    <path id="path1606" d="M1043.137,1721.855l8.4-.727-8.392,4.545Z" transform="translate(-1034.291 -1706.934)" fill="#818795"/>
  </g>
</svg>
