<svg id="logo_bittorrent-gray" xmlns="http://www.w3.org/2000/svg" width="28.503" height="28.504" viewBox="0 0 28.503 28.504">
  <path id="Path_27" data-name="Path 27" d="M952.884,1718.321a14.153,14.153,0,0,0-.833-2.675,14.447,14.447,0,0,0-1.315-2.427,14.388,14.388,0,0,0-3.845-3.844,14.953,14.953,0,0,0-2.426-1.315,14.278,14.278,0,0,0-17.35,5.159,14.932,14.932,0,0,0-1.316,2.427,14.194,14.194,0,0,0,0,11.08,14.5,14.5,0,0,0,1.316,2.425A14.373,14.373,0,0,0,930.96,1733a15.008,15.008,0,0,0,2.425,1.316,14.2,14.2,0,0,0,11.08,0,14.5,14.5,0,0,0,2.426-1.316,14.373,14.373,0,0,0,3.845-3.845,14.932,14.932,0,0,0,1.315-2.425A14.184,14.184,0,0,0,952.884,1718.321Zm-13.946,15.333a12.454,12.454,0,1,1,12.454-12.454A12.454,12.454,0,0,1,938.938,1733.654Z" transform="translate(-924.673 -1706.933)" fill="#bdc3d0"/>
  <path id="Path_28" data-name="Path 28" d="M939.159,1732.572h.337a.682.682,0,0,0,.174-.015h.016a.621.621,0,0,0,.16-.014h.044a.388.388,0,0,0,.131-.015h.044c.044,0,.089-.014.147-.014h.029c.058,0,.117-.016.175-.016a.639.639,0,0,0,.161-.028h.029c.044,0,.088-.015.131-.015h.03c.059-.015.1-.015.161-.029a2.558,2.558,0,0,0,.336-.073h.03c.043-.015.1-.015.145-.03h.015c.117-.029.219-.059.336-.087a13.118,13.118,0,0,1-3.259-.307,10.229,10.229,0,0,1-4.444-2.062,9,9,0,0,1-3.244-7,8.5,8.5,0,0,1,2-5.437,8.679,8.679,0,0,1,6.46-3.07h.336v-1.943h-.379a10.929,10.929,0,0,0-2.193.262,10.55,10.55,0,0,0-2.1.716,10.864,10.864,0,0,0-1.931,1.17,10.271,10.271,0,0,0-1.68,1.608,9.882,9.882,0,0,0-1.213,1.8,10.274,10.274,0,0,0-.8,1.943,10.65,10.65,0,0,0-.394,2.033l-.044.642v.38a11.057,11.057,0,0,0,.263,2.193,10.533,10.533,0,0,0,.716,2.1,9.084,9.084,0,0,0,2,2.88,11.306,11.306,0,0,0,7.015,2.426Z" transform="translate(-924.673 -1706.933)" fill="#bdc3d0"/>
  <path id="Path_29" data-name="Path 29" d="M942.345,1730.7a14.884,14.884,0,0,1-2.148-.234,8.206,8.206,0,0,1-6.548-5.159,6.363,6.363,0,0,1,3.975-8.142,6.248,6.248,0,0,1,1.988-.322,6.721,6.721,0,0,1,2.515.5l.817-1.739c-.245-.1-.494-.191-.744-.277a8.61,8.61,0,0,0-2.588-.395,8.245,8.245,0,0,0-5.466,2.09,8.306,8.306,0,0,0-1.1,1.184,7.889,7.889,0,0,0-.833,1.359,8.223,8.223,0,0,0-.819,3.085,8.312,8.312,0,0,0,.438,3.273,8.068,8.068,0,0,0,1.755,2.909,9.388,9.388,0,0,0,2.557,1.9,11.478,11.478,0,0,0,3.712,1.039,23.6,23.6,0,0,0,2.734.146c.6-.22.847-.323,1.169-.454.278-.131.555-.263.834-.424s.322-.191.789-.5a.9.9,0,0,0,.117-.089A13.032,13.032,0,0,1,942.345,1730.7Z" transform="translate(-924.673 -1706.933)" fill="#bdc3d0"/>
  <path id="Path_30" data-name="Path 30" d="M945.942,1728.523c-.454.029-1.1.072-1.828.072a13.983,13.983,0,0,1-4.253-.569c-2.106-.7-4.093-2.5-4.093-4.722a4,4,0,0,1,4-4h.007a4.017,4.017,0,0,1,3.494,2.046l1.739-.862a5.625,5.625,0,0,0-1.039-1.388,5.928,5.928,0,0,0-8.383-.008l-.007.008a5.924,5.924,0,0,0-1.739,4.194,5.836,5.836,0,0,0,.513,2.368,7.135,7.135,0,0,0,1.271,1.887,8.943,8.943,0,0,0,3.64,2.308,14.68,14.68,0,0,0,5.189.468,10.816,10.816,0,0,0,1.592-.234,10.981,10.981,0,0,0,1.755-1.739C947.344,1728.392,946.511,1728.479,945.942,1728.523Z" transform="translate(-924.673 -1706.933)" fill="#bdc3d0"/>
</svg>
