<svg id="logo_tether-gray" xmlns="http://www.w3.org/2000/svg" width="22.871" height="21.067" viewBox="0 0 22.871 21.067">
  <path id="Path_18" data-name="Path 18" d="M555.214,1721.977h0c-.13.01-.8.05-2.3.05-1.191,0-2.037-.036-2.334-.05h0c-4.6-.2-8.04-1-8.04-1.964s3.437-1.759,8.04-1.965v3.131c.3.021,1.163.072,2.355.072,1.429,0,2.145-.059,2.274-.071v-3.13c4.594.2,8.022,1.006,8.022,1.963s-3.427,1.759-8.022,1.963h0Zm0-4.251v-2.8h6.411v-4.273H544.17v4.273h6.41v2.8c-5.21.239-9.128,1.271-9.128,2.508s3.918,2.268,9.128,2.508v8.978h4.633v-8.981c5.2-.239,9.11-1.27,9.11-2.506s-3.909-2.267-9.11-2.507h0Zm0,0" transform="translate(-541.452 -1710.652)" fill="#bdc3d0" fill-rule="evenodd"/>
</svg>
