<svg id="logo_bitcoin-gray" xmlns="http://www.w3.org/2000/svg" width="18.575" height="25.719" viewBox="0 0 18.575 25.719">
  <path id="Path_37" data-name="Path 37" d="M467.839,1720.228a3.663,3.663,0,0,0,2.037-3.986c-.27-2.809-2.7-3.75-5.758-4.018v-3.9h-2.371v3.794c-.622,0-1.26.011-1.893.025v-3.819h-2.37l0,3.894c-.513.01-1.018.02-1.51.02v-.011l-3.27,0v2.533s1.752-.033,1.721,0a1.222,1.222,0,0,1,1.364,1.038v4.44h0v.017h0v6.219a.837.837,0,0,1-.891.785c.03.027-1.723,0-1.723,0l-.472,2.833h3.087c.574,0,1.14.01,1.693.013l0,3.941h2.369v-3.9c.649.013,1.279.018,1.894.018v3.881h2.37v-3.933c3.987-.228,6.78-1.233,7.126-4.978C471.52,1722.119,470.1,1720.772,467.839,1720.228Zm-7.933-5.3c1.341,0,5.549-.426,5.547,2.368,0,2.679-4.208,2.365-5.547,2.367Zm0,12.346v-5.223c1.609,0,6.651-.458,6.651,2.612C466.557,1727.613,461.515,1727.279,459.906,1727.279Z" transform="translate(-452.7 -1708.326)" fill="#bdc3d0"/>
</svg>
