<svg id="logo_crypto_com-gray" xmlns="http://www.w3.org/2000/svg" width="26.187" height="30.297" viewBox="0 0 26.187 30.297">
  <path id="Path_19" data-name="Path 19" d="M827.594,1706.037l13.121,7.557v15.161l-13.106,7.579-.106-.026-12.975-7.553v-15.161l12.975-7.557Zm-.043,1.568-11.645,6.782v13.576l11.644,6.779,1.422-.822,10.365-5.961v-13.57l-10.365-5.995Zm-9.84,14.624,3.447-2.577,3.047,1.946v3.5l2.306,2.221,0,1.042-2.221,2.082h-1.876l-4.7-8.215Zm10.892,6.136,0-1.047,2.3-2.219v-3.5l3.014-1.971,3.44,2.6-4.676,8.19h-1.853Zm-3.266-6.767-1.122-2.937h6.668l-1.1,2.937.325,3.283-2.573.005-2.543,0Zm2.2-3.742-6.337,0,1.178-5.265h10.287l1.241,5.272Z" transform="translate(-814.528 -1706.037)" fill="#bdc3d0"/>
</svg>
