<svg xmlns="http://www.w3.org/2000/svg" width="27.256" height="27.256" viewBox="0 0 27.256 27.256">
  <g id="logo_dai-gray" transform="translate(0.5 0.5)">
    <path id="Subtraction_1" data-name="Subtraction 1" d="M14565.97,21473.674a13.133,13.133,0,1,1,9.282-3.848A13.038,13.038,0,0,1,14565.97,21473.674Zm-8.3-12.2h0v1.563c0,.129.038.129.141.129h1.778c.129,0,.129.016.129.125v4.543h5.869a9.427,9.427,0,0,0,1.746-.156,8.768,8.768,0,0,0,1.935-.615c.265-.121.511-.264.771-.414l.042-.023.174-.1a10.931,10.931,0,0,0,.878-.705,6.654,6.654,0,0,0,1.725-2.512.2.2,0,0,1,.2-.16.091.091,0,0,1,.039.006l1.552,0c.121,0,.162-.045.162-.178v-1a2.315,2.315,0,0,0,0-.285.244.244,0,0,1,.013-.07.152.152,0,0,0-.013-.15h-1.293c-.156,0-.156-.016-.156-.156a8.721,8.721,0,0,0,0-1.5c0-.072,0-.109.018-.127s.057-.023.117-.023h1.137c.135,0,.178-.039.178-.162v-1.348c0-.184,0-.184-.194-.184h-1.471a.133.133,0,0,1-.039,0,.2.2,0,0,1-.2-.176,7.024,7.024,0,0,0-.641-1.256,8.285,8.285,0,0,0-.879-1.088,7.091,7.091,0,0,0-1.444-1.117,8.094,8.094,0,0,0-2.57-.955,8.994,8.994,0,0,0-1.326-.143h-6.154c-.167,0-.167.029-.167.16v4.426c0,.156-.032.156-.15.156h-1.768c-.13,0-.13.021-.13.113v1.443c0,.135.038.135.141.135h1.778c.129,0,.129.021.129.119v1.541c0,.141-.037.141-.146.141Zm8.218,4.883q-.078,0-.155-.006h-4.2c-.167,0-.167-.033-.167-.168v-2.846c0-.166.042-.166.167-.166h9.1c.07-.006.141-.012.211-.012s.14.006.21.012c.064.037.006.162,0,.162a5.291,5.291,0,0,1-2.285,2.3h-.059a3.554,3.554,0,0,1-.6.279,6.214,6.214,0,0,1-1.784.395A2.132,2.132,0,0,1,14565.883,21466.361Zm5.557-4.889h-9.878c-.2,0-.2,0-.2-.189v-1.459c0-.119.036-.156.156-.156h9.933c.105,0,.15.043.15.139a9.041,9.041,0,0,1,0,1.525C14571.6,21461.473,14571.548,21461.473,14571.439,21461.473Zm-.452-3.449h-9.469c-.156,0-.156-.033-.156-.156v-2.91c0-.105.014-.156.14-.156h4.408c.025,0,.051,0,.075,0a6.1,6.1,0,0,1,1.315.146,5.931,5.931,0,0,1,2.463,1.252,1.879,1.879,0,0,1,.378.365,4.3,4.3,0,0,1,.608.766,3.537,3.537,0,0,1,.3.518.143.143,0,0,1,0,.113h.037C14571.069,21458.006,14570.992,21458.023,14570.987,21458.023Z" transform="translate(-14552.842 -21447.418)" fill="#bdc3d0" stroke="rgba(0,0,0,0)" stroke-miterlimit="10" stroke-width="1"/>
  </g>
</svg>
