<svg xmlns="http://www.w3.org/2000/svg" width="32" height="32" viewBox="0 0 32 32">
  <g id="logo_mkr-gray" transform="translate(0.5 0.5)">
    <path id="Subtraction_5" data-name="Subtraction 5" d="M15.5,31A15.5,15.5,0,0,1,4.543,4.541a15.5,15.5,0,0,1,21.92,21.922A15.4,15.4,0,0,1,15.5,31Zm8.377-18.492v7.631h1.477V11.277a.855.855,0,0,0-.865-.854.856.856,0,0,0-.516.166l-7.016,5.281a.878.878,0,0,0-.346.688v3.58H18.1V16.863l5.781-4.354Zm-16,0,0,0,5.783,4.354v3.275h1.475v-3.58a.85.85,0,0,0-.34-.687L7.781,10.59a.849.849,0,0,0-.514-.17.879.879,0,0,0-.7.35.85.85,0,0,0-.166.508v8.861H7.877V12.508Z" transform="translate(-0.002)" fill="#bdc3d0" stroke="rgba(0,0,0,0)" stroke-miterlimit="10" stroke-width="1"/>
  </g>
</svg>
