<svg id="logo_binance_coin-gray" xmlns="http://www.w3.org/2000/svg" width="28.504" height="28.505" viewBox="0 0 28.504 28.505">
  <g id="Group_2064" data-name="Group 2064">
    <g id="Layer_1-2" data-name="Layer 1-2">
      <path id="Path_21" data-name="Path 21" d="M652.758,1718.911l5.536-5.536,5.538,5.539,3.221-3.221-8.759-8.76-8.757,8.757,3.221,3.221m-8.716,2.275,3.221-3.222,3.221,3.221-3.221,3.221Zm8.716,2.274,5.536,5.536,5.538-5.538,3.223,3.219,0,0-8.759,8.759-8.757-8.757,0,0,3.226-3.217m13.345-2.273,3.221-3.221,3.221,3.221-3.221,3.221Z" transform="translate(-644.042 -1706.933)" fill="#bdc3d0"/>
      <path id="Path_22" data-name="Path 22" d="M661.561,1721.184h0l-3.268-3.268-2.416,2.415h0l-.277.277-.573.573,0,0,0,0,3.266,3.266,3.268-3.269h0l0,0" transform="translate(-644.042 -1706.933)" fill="#bdc3d0"/>
    </g>
  </g>
</svg>
